<?xml version="1.0" encoding="UTF-8" standalone="no"?>
<!-- Created with Inkscape (http://www.inkscape.org/) -->

<svg
   xmlns:dc="http://purl.org/dc/elements/1.1/"
   xmlns:cc="http://creativecommons.org/ns#"
   xmlns:rdf="http://www.w3.org/1999/02/22-rdf-syntax-ns#"
   xmlns:svg="http://www.w3.org/2000/svg"
   xmlns="http://www.w3.org/2000/svg"
   xmlns:sodipodi="http://sodipodi.sourceforge.net/DTD/sodipodi-0.dtd"
   xmlns:inkscape="http://www.inkscape.org/namespaces/inkscape"
   width="103.83886mm"
   height="103.73192mm"
   viewBox="0 0 103.83886 103.73192"
   version="1.1"
   id="svg8"
   inkscape:version="0.92.4 (5da689c313, 2019-01-14)"
   sodipodi:docname="indep-logo.svg">
  <defs
     id="defs2" />
  <sodipodi:namedview
     id="base"
     pagecolor="#ffffff"
     bordercolor="#666666"
     borderopacity="1.0"
     inkscape:pageopacity="0.0"
     inkscape:pageshadow="2"
     inkscape:zoom="0.7"
     inkscape:cx="-186.12813"
     inkscape:cy="317.47074"
     inkscape:document-units="mm"
     inkscape:current-layer="layer1"
     showgrid="false"
     fit-margin-top="0"
     fit-margin-left="0"
     fit-margin-right="0"
     fit-margin-bottom="0"
     inkscape:window-width="1680"
     inkscape:window-height="987"
     inkscape:window-x="892"
     inkscape:window-y="-8"
     inkscape:window-maximized="1" />
  <metadata
     id="metadata5">
    <rdf:RDF>
      <cc:Work
         rdf:about="">
        <dc:format>image/svg+xml</dc:format>
        <dc:type
           rdf:resource="http://purl.org/dc/dcmitype/StillImage" />
        <dc:title></dc:title>
      </cc:Work>
    </rdf:RDF>
  </metadata>
  <g
     inkscape:label="Layer 1"
     inkscape:groupmode="layer"
     id="layer1"
     transform="translate(-53.985789,-85.254939)">
    <path
       style="fill:#000000;stroke-width:0.26458335"
       d="m 95.954216,188.10003 c -1.74625,-0.42881 -3.41313,-0.87645 -3.70417,-0.99474 -0.29104,-0.11829 -1.24354,-0.42102 -2.11667,-0.67274 -1.70556,-0.4917 -2.05503,-0.63303 -5.29166,-2.13997 -4.20107,-1.95596 -7.56272,-4.04929 -10.93523,-6.80947 -1.66279,-1.36088 -4.832599,-4.1952 -5.184805,-4.63605 -0.156276,-0.19561 -0.53624,-0.61233 -0.844366,-0.92604 -1.477948,-1.50476 -5.910779,-7.77612 -6.884435,-9.73978 -2.934122,-5.91749 -4.391712,-9.34276 -5.161627,-12.12958 -0.140711,-0.50932 -0.376039,-1.34276 -0.52295,-1.85208 -0.146912,-0.50932 -0.300284,-1.2237 -0.340827,-1.5875 -0.04054,-0.3638 -0.153859,-1.01865 -0.251811,-1.45521 -1.17145,-5.22099 -0.886338,-17.41373 0.522798,-22.35729 0.553209,-1.94078 2.172002,-5.84871 2.639008,-6.37083 0.205488,-0.22974 0.373614,-0.56292 0.373614,-0.74039 0,-0.17747 0.252471,-0.82294 0.561046,-1.43438 0.308576,-0.61143 0.856057,-1.70701 1.216626,-2.43461 0.360568,-0.7276 0.873044,-1.56104 1.138836,-1.85208 0.26579,-0.29104 0.924886,-1.36261 1.464656,-2.38125 0.53977,-1.01865 1.36349,-2.2688 1.83049,-2.77813 0.467,-0.50932 1.097636,-1.28323 1.401414,-1.71979 1.548696,-2.22565 6.489273,-6.662585 9.849433,-8.845395 0.65484,-0.42539 1.5381,-1.04588 1.96278,-1.37886 1.37153,-1.07536 5.87824,-3.40179 6.58989,-3.40179 0.18553,0 0.45044,-0.11118 0.58869,-0.24706 0.212,-0.20838 2.09057,-0.86431 6.91571,-2.41473 0.46394,-0.149073 1.47597,-0.38004 2.24896,-0.513258 0.77299,-0.133218 1.70309,-0.308914 2.06689,-0.390435 5.197214,-1.164591 18.120914,-0.66294 21.960424,0.852425 0.3638,0.143584 1.44983,0.396863 2.4134,0.562842 0.96357,0.165979 3.31111,0.955806 5.21674,1.755166 1.90564,0.79936 3.57789,1.45338 3.71612,1.45338 0.13822,0 0.291,0.0893 0.3395,0.19844 0.10832,0.24372 2.25278,1.65365 2.51515,1.65365 0.58454,0 7.36758,4.9128 8.95001,6.48229 5.9062,5.857885 12.34976,14.999885 13.24053,18.785415 0.10273,0.43657 0.42198,1.32954 0.70945,1.98438 1.06876,2.43459 1.3636,3.45811 1.79112,6.21771 0.15781,1.01864 0.41714,2.53438 0.57627,3.36831 0.95948,5.02793 -0.43902,18.71189 -2.45444,24.01606 -1.97403,5.19524 -3.39254,8.02509 -5.95919,11.88827 -0.70897,1.0671 -1.52903,2.32924 -1.82235,2.80476 -2.06091,3.34097 -11.76712,12.55906 -13.22409,12.55906 -0.0479,0 -0.71979,0.41672 -1.49315,0.92604 -0.77337,0.50932 -1.48371,0.92604 -1.57854,0.92604 -0.0948,0 -0.85081,0.40851 -1.67996,0.9078 -0.82915,0.49929 -2.18303,1.11379 -3.00862,1.36556 -0.82559,0.25178 -1.67967,0.59839 -1.89795,0.77025 -0.61461,0.48392 -6.00298,2.02889 -8.06979,2.31381 -1.01865,0.14042 -2.09021,0.34853 -2.38125,0.46247 -2.90587,1.13756 -13.27172,1.10835 -17.991674,-0.0507 z m 16.776404,-1.8192 c 1.3689,-0.26969 2.58683,-0.42982 2.70651,-0.35585 0.11969,0.074 0.48796,-0.012 0.81839,-0.19109 0.33043,-0.17907 1.07703,-0.41027 1.65912,-0.51378 2.68659,-0.47776 9.36836,-3.01652 11.77396,-4.47356 0.21828,-0.13221 0.87312,-0.49706 1.4552,-0.81077 5.13451,-2.76723 12.87038,-9.83928 15.25174,-13.94297 0.44334,-0.76398 0.91377,-1.38906 1.0454,-1.38906 0.13163,0 0.23932,-0.17982 0.23932,-0.39959 0,-0.21977 0.40139,-0.97064 0.89197,-1.66859 0.49057,-0.69796 0.97485,-1.53017 1.07616,-1.84937 0.10131,-0.3192 0.29524,-0.58037 0.43095,-0.58037 0.13572,0 0.24676,-0.17179 0.24676,-0.38175 0,-0.20996 0.22701,-0.77551 0.50446,-1.25677 0.75983,-1.31798 2.71772,-6.69462 3.44993,-9.47398 0.24919,-0.94588 0.52361,-1.89838 0.60983,-2.11667 0.0862,-0.21828 0.24281,-1.17078 0.34798,-2.11666 0.10516,-0.94589 0.23668,-2.07698 0.29225,-2.51354 0.21924,-1.72216 0.26529,-11.40314 0.0562,-11.81231 -0.12233,-0.23938 -0.26936,-1.19188 -0.32673,-2.11667 -0.0574,-0.92479 -0.17005,-1.86004 -0.2504,-2.07832 -0.0803,-0.21828 -0.22189,-0.96305 -0.31455,-1.65506 -0.0927,-0.692 -0.33894,-1.58497 -0.54729,-1.98437 -0.20835,-0.39941 -0.37955,-0.94047 -0.38045,-1.20235 -7.9e-4,-0.26189 -0.16407,-0.79767 -0.36262,-1.19063 -0.19855,-0.39295 -0.69574,-1.70941 -1.10488,-2.92545 -0.47283,-1.40534 -1.35359,-3.13575 -2.41714,-4.74887 -0.92028,-1.39583 -1.67324,-2.69625 -1.67324,-2.88982 0,-0.19358 -0.56692,-1.09268 -1.25982,-1.99801 -0.6929,-0.90533 -1.56876,-2.12367 -1.94635,-2.7074 -0.75419,-1.16596 -5.52759,-6.217575 -5.87347,-6.215815 -0.11886,6.1e-4 -0.65464,-0.41458 -1.19062,-0.92264 -0.536,-0.50806 -1.05968,-0.92478 -1.16376,-0.92604 -0.10408,-10e-4 -0.59649,-0.35988 -1.09426,-0.79692 -0.49776,-0.43704 -1.33901,-0.97595 -1.86943,-1.19758 -0.53042,-0.22162 -1.82394,-0.96497 -2.87449,-1.65189 -1.05055,-0.68691 -2.26728,-1.32579 -2.70384,-1.41971 -0.91045,-0.19589 -2.58227,-0.81906 -2.77813,-1.03555 -0.20618,-0.2279 -2.68871,-1.22027 -3.57187,-1.42783 -0.43656,-0.1026 -1.15094,-0.34741 -1.5875,-0.54402 -0.43656,-0.19662 -1.86532,-0.5511 -3.175,-0.78775 -1.30969,-0.23664 -2.61938,-0.491308 -2.91042,-0.565923 -2.3927,-0.613422 -8.12295,-0.897503 -11.90625,-0.590261 -6.311344,0.512544 -9.707244,1.175994 -11.690424,2.283934 -0.31786,0.17758 -0.91485,0.32287 -1.32665,0.32287 -1.29779,0 -7.12155,2.43297 -8.54648,3.57042 -0.21828,0.17425 -0.96765,0.58643 -1.66528,0.91597 -0.69762,0.32954 -1.88825,1.09957 -2.64583,1.71118 -0.75759,0.61162 -2.04044,1.5482 -2.8508,2.08131 -0.81035,0.53311 -1.63124,1.26429 -1.8242,1.62484 -0.19297,0.36055 -0.49187,0.690735 -0.66424,0.733735 -0.5385,0.13433 -5.948761,6.15117 -5.956749,6.6246 -0.0018,0.10803 -0.271206,0.50241 -0.598627,0.87639 -0.327422,0.37398 -0.833438,1.11944 -1.12448,1.65659 -0.291041,0.53715 -0.797057,1.35177 -1.124479,1.81029 -0.327422,0.45851 -0.595312,1.01661 -0.595312,1.24022 0,0.22361 -0.120121,0.4808 -0.266935,0.57154 -0.226749,0.14014 -1.682166,3.01689 -2.408723,4.76104 -3.507296,8.41951 -4.57498,20.07197 -2.569768,28.04584 0.292756,1.16417 0.58559,2.47385 0.650741,2.91042 0.159357,1.0678 0.674407,2.84686 0.921061,3.18148 0.109895,0.14909 0.397935,0.86347 0.64009,1.5875 0.49709,1.4863 0.747182,2.06467 2.542742,5.8805 0.701876,1.49158 1.368859,2.71197 1.482183,2.71197 0.202787,0 0.443788,0.39371 1.227609,2.00544 0.217943,0.44815 0.581733,0.96874 0.808422,1.15688 0.226688,0.18813 0.412161,0.4915 0.412161,0.67414 0,0.18265 0.194787,0.49374 0.43286,0.69133 0.238073,0.19758 0.714088,0.80473 1.05781,1.34922 0.906618,1.43618 7.519464,8.03232 8.298914,8.27796 0.3638,0.11464 0.81704,0.42949 1.00719,0.69966 0.19015,0.27017 0.45671,0.49121 0.59236,0.49121 0.13564,0 0.93256,0.51271 1.77093,1.13935 1.86784,1.39612 6.34072,3.88773 6.97916,3.88773 0.25687,0 0.54083,0.11938 0.631,0.26528 0.17802,0.28804 2.32248,1.32222 2.74174,1.32222 0.14171,0 0.59473,0.17127 1.0067,0.3806 4.65188,2.36368 16.137854,3.34992 23.081704,1.9819 z m -14.051474,-0.52436 c -0.24754,-0.14434 -1.37863,-0.44168 -2.51354,-0.66076 -4.4836,-0.86549 -5.5062,-1.15738 -6.86638,-1.95991 -0.50374,-0.29721 -1.11744,-0.54064 -1.36378,-0.54095 -0.49326,-5.3e-4 -3.37849,-1.44102 -4.04061,-2.01719 -0.22974,-0.19992 -0.55537,-0.36349 -0.72363,-0.36349 -0.65807,0 -6.60403,-3.82255 -7.27839,-4.67913 -0.26522,-0.3369 -0.62399,-0.61254 -0.79728,-0.61254 -0.17328,0 -0.84924,-0.53188 -1.50215,-1.18197 -0.6529,-0.65008 -1.33592,-1.18586 -1.51782,-1.19062 -0.1819,-0.005 -0.3314,-0.098 -0.33222,-0.2071 -8.2e-4,-0.10914 -0.65667,-0.87893 -1.45745,-1.71064 -1.900734,-1.97414 -4.719738,-5.89807 -5.129666,-7.14026 -0.177791,-0.53875 -0.535308,-1.04685 -0.794484,-1.12911 -0.259176,-0.0823 -0.817367,-0.83049 -1.240424,-1.66273 -0.423057,-0.83224 -1.147545,-2.17497 -1.609973,-2.98384 -0.462428,-0.80886 -1.270714,-2.80058 -1.79619,-4.42604 -0.525477,-1.62546 -1.069861,-3.02612 -1.209743,-3.11257 -0.139882,-0.0865 -0.254331,-0.49367 -0.254331,-0.90494 0,-0.41126 -0.168067,-1.32697 -0.373481,-2.0349 -1.073851,-3.70089 -1.717297,-15.64389 -0.968782,-17.98156 0.234234,-0.73153 0.638438,-3.34389 0.691983,-4.47227 0.01381,-0.29104 0.116336,-0.76729 0.227835,-1.05833 0.77857,-2.03228 1.040795,-2.70969 1.229043,-3.175 0.117746,-0.29104 0.450031,-1.18401 0.73841,-1.98437 0.644068,-1.78754 1.906858,-4.49464 2.838686,-6.08542 1.522928,-2.59989 4.6327,-7.09503 5.008034,-7.23905 0.218821,-0.084 0.397856,-0.28942 0.397856,-0.45656 0,-0.52002 4.442757,-4.971785 6.050467,-6.062725 0.53612,-0.36381 1.15027,-0.8125 1.36476,-0.9971 1.14772,-0.98777 1.68232,-1.38415 1.86678,-1.38415 0.11286,0 0.36835,-0.16316 0.56776,-0.36257 0.19941,-0.19941 0.75003,-0.56293 1.2236,-0.80782 0.47356,-0.24489 1.09282,-0.67705 1.37612,-0.96035 0.2833,-0.2833 0.70084,-0.5151 0.92784,-0.5151 0.22702,0 0.95856,-0.41675 1.62565,-0.92611 0.66709,-0.50937 1.70174,-1.05679 2.29923,-1.2165 0.59748,-0.15971 1.2054,-0.38154 1.35092,-0.49297 0.14552,-0.11143 0.79446,-0.2836 1.44208,-0.38261 0.64763,-0.099 1.30772,-0.28809 1.46687,-0.42017 0.15916,-0.13209 1.35569,-0.49031 2.65896,-0.79604 9.590714,-2.249869 16.625604,-2.32746 25.143614,-0.27732 4.49104,1.08092 4.64093,1.1298 7.41746,2.41926 0.59803,0.27773 1.20853,0.50496 1.35667,0.50496 0.14814,0 0.4198,0.18128 0.60369,0.40285 0.18388,0.22157 0.53884,0.33794 0.78879,0.25861 0.24995,-0.0793 0.61249,0.0462 0.80563,0.2789 0.19315,0.23272 1.31128,0.87171 2.48475,1.41997 1.17347,0.54825 2.50795,1.31303 2.96552,1.6995 0.45757,0.38647 0.94901,0.70267 1.09208,0.70267 0.14308,0 0.4218,0.19479 0.61939,0.43286 0.19758,0.23808 0.83636,0.73406 1.41951,1.10218 1.19327,0.75328 1.49838,1.04405 4.73005,4.507805 3.19558,3.42507 8.37265,10.70971 8.37265,11.78112 0,0.0821 0.35719,0.71256 0.79375,1.40094 0.43657,0.68839 0.79375,1.43843 0.79375,1.66676 0,0.22833 0.23196,0.84791 0.51546,1.37686 0.43515,0.81191 1.19849,3.62664 2.39195,8.82002 0.59071,2.57055 0.52775,12.26018 -0.10488,16.13959 -0.46018,2.82194 -0.73037,4.22359 -0.85212,4.42059 -0.0768,0.12425 -0.17525,0.6092 -0.2188,1.07766 -0.0436,0.46846 -0.31306,1.38753 -0.59891,2.04237 -0.61083,1.39932 -1.58922,3.77073 -2.01949,4.8948 -0.16711,0.43656 -0.37269,0.85328 -0.45685,0.92604 -0.0842,0.0728 -0.33503,0.48948 -0.5575,0.92604 -1.53947,3.02104 -1.96049,3.76958 -2.94432,5.23476 -0.60729,0.90442 -1.22401,1.84058 -1.3705,2.08034 -0.536,0.87734 -1.86947,2.48715 -2.44914,2.95671 -0.32742,0.26522 -0.59798,0.62241 -0.60125,0.79375 -0.008,0.42556 -6.81486,6.79382 -7.26162,6.79382 -0.1083,0 -0.67056,0.37513 -1.24947,0.83363 -1.07602,0.85222 -1.37763,1.03145 -4.55932,2.70933 -1.00736,0.53124 -1.97616,1.08589 -2.15289,1.23256 -0.17673,0.14668 -1.31596,0.62968 -2.53162,1.07334 -1.21566,0.44366 -2.33045,0.90276 -2.47732,1.02022 -0.14687,0.11746 -0.68375,0.29897 -1.19307,0.40335 -0.50933,0.10438 -1.64042,0.41487 -2.51355,0.68998 -0.87312,0.2751 -2.30187,0.61208 -3.175,0.74884 -0.87312,0.13676 -2.77812,0.43302 -4.23333,0.65835 -2.99846,0.46429 -11.633144,0.56314 -12.356324,0.14145 z M 112.2261,184.4508 c 0.65484,-0.12803 1.36921,-0.22332 1.5875,-0.21177 0.66993,0.0355 4.58036,-0.87311 5.46394,-1.26954 0.45856,-0.20574 0.98618,-0.37407 1.1725,-0.37407 0.56925,0 4.47846,-1.63612 6.85731,-2.86998 1.23692,-0.64157 2.84427,-1.4632 3.57187,-1.82586 0.72761,-0.36265 1.73964,-1.0064 2.24896,-1.43055 1.43714,-1.19682 1.55305,-1.28195 1.74543,-1.28195 0.50008,0 5.45728,-4.69507 7.40292,-7.01146 2.10478,-2.50585 6.19748,-8.59278 6.19748,-9.21728 0,-0.0909 0.45816,-1.14975 1.01814,-2.35312 1.72591,-3.7089 1.89228,-4.10696 1.89228,-4.52741 0,-0.22408 0.11906,-0.481 0.26458,-0.57094 0.14553,-0.0899 0.26459,-0.50665 0.26459,-0.92604 0,-0.41938 0.10327,-0.82634 0.22949,-0.90435 0.12622,-0.078 0.29626,-0.65058 0.37787,-1.27239 0.0816,-0.6218 0.22036,-1.42821 0.30832,-1.79201 0.088,-0.3638 0.21482,-1.91161 0.28189,-3.43958 0.0671,-1.52797 0.21871,-3.13532 0.33697,-3.57188 0.27282,-1.00715 0.18489,-3.54052 -0.16248,-4.68122 -0.14656,-0.48127 -0.27321,-2.12518 -0.28145,-3.65315 -0.0165,-3.05219 -0.13087,-4.54446 -0.37921,-4.94627 -0.0893,-0.14444 -0.40549,-1.38257 -0.70273,-2.7514 -0.49043,-2.25853 -1.52588,-5.28482 -1.95504,-5.71398 -0.0937,-0.0937 -0.1703,-0.37789 -0.1703,-0.63161 0,-0.61802 -1.33674,-3.41389 -2.09004,-4.37145 -0.33213,-0.42217 -0.77258,-1.12477 -0.97879,-1.56134 -0.40003,-0.84689 -1.31548,-2.22602 -2.19532,-3.30729 -0.29604,-0.3638 -1.08472,-1.34606 -1.75263,-2.18281 -0.6679,-0.83674 -1.3269,-1.52135 -1.46442,-1.52135 -0.13753,0 -0.25005,-0.21167 -0.25005,-0.47037 0,-0.2587 -0.26789,-0.69636 -0.59531,-0.97257 -0.32742,-0.27622 -1.37948,-1.19565 -2.33791,-2.04318 -0.95842,-0.847535 -1.85871,-1.540975 -2.00063,-1.540975 -0.14192,0 -0.54157,-0.26415 -0.88811,-0.587 -0.34654,-0.32285 -1.23219,-0.89568 -1.96812,-1.27297 -0.73592,-0.37728 -1.45628,-0.9482 -1.60079,-1.26871 -0.14646,-0.32485 -0.41926,-0.52268 -0.61641,-0.44703 -0.19452,0.0746 -1.26691,-0.2899 -2.38309,-0.81009 -1.11618,-0.52019 -2.647,-1.23447 -3.40183,-1.58729 -0.75482,-0.35282 -1.49896,-0.64149 -1.65365,-0.64149 -0.15468,0 -0.28123,-0.1096 -0.28123,-0.24356 0,-0.13396 -0.38696,-0.32424 -0.8599,-0.42285 -0.47294,-0.0986 -1.0985,-0.32975 -1.39012,-0.51364 -0.29163,-0.1839 -0.94647,-0.39971 -1.45521,-0.47957 -0.50874,-0.0799 -2.28155,-0.508 -3.93957,-0.9514 -2.14912,-0.57474 -3.89618,-0.85113 -6.08541,-0.96272 -1.68896,-0.0861 -3.54709,-0.20022 -4.12917,-0.25364 -0.58208,-0.0534 -1.83224,0.005 -2.77813,0.12908 -0.94588,0.12441 -2.910414,0.3635 -4.365624,0.53131 -1.45521,0.16781 -2.94349,0.45889 -3.30729,0.64685 -0.36381,0.18795 -1.25678,0.47564 -1.98438,0.6393 -2.40889,0.54185 -4.19734,1.07961 -4.34865,1.30759 -0.0821,0.12369 -0.74458,0.44284 -1.47218,0.70922 -0.72761,0.26637 -1.44198,0.56646 -1.5875,0.66686 -0.14552,0.10039 -0.5761,0.25676 -0.95685,0.34748 -0.38074,0.0907 -1.63089,0.68854 -2.77812,1.32849 -1.14723,0.63995 -2.38352,1.25312 -2.74733,1.3626 -0.3638,0.10948 -1.3163,0.75223 -2.11666,1.42834 -0.80037,0.67611 -1.87839,1.54123 -2.3956,1.92249 -1.18776,0.875535 -4.35675,3.984175 -5.479842,5.375485 -0.469868,0.58208 -1.073997,1.29646 -1.342509,1.5875 -0.683206,0.74053 -2.159136,3.01605 -2.159136,3.32886 0,0.14279 -0.178594,0.32815 -0.396875,0.41191 -0.218281,0.0838 -0.396875,0.36132 -0.396875,0.61678 0,0.25546 -0.357188,0.91394 -0.79375,1.46328 -0.436563,0.54934 -0.79375,1.16476 -0.79375,1.3676 0,0.20284 -0.178594,0.43733 -0.396875,0.52109 -0.218282,0.0838 -0.396875,0.32071 -0.396875,0.52654 0,0.20583 -0.291874,0.81817 -0.648609,1.36076 -0.554353,0.84315 -0.869965,1.80299 -1.336776,4.06538 -0.04914,0.23817 -0.210869,0.65489 -0.35939,0.92605 -0.148521,0.27115 -0.472645,1.20737 -0.720274,2.0805 -0.247629,0.87312 -0.59642,1.82773 -0.77509,2.12135 -0.178671,0.29362 -0.402606,1.76811 -0.497635,3.27664 -0.09503,1.50852 -0.229416,2.83442 -0.298638,2.94642 -0.06922,0.112 -0.190204,1.19736 -0.268847,2.41191 -0.07864,1.21454 -0.151007,2.32732 -0.160808,2.47284 -0.02021,0.30003 0.721265,5.84606 1.083949,8.10766 0.131692,0.8212 0.664823,2.75118 1.184737,4.28887 0.519913,1.53768 0.945297,3.01219 0.945297,3.27669 0,0.26451 0.16083,0.71577 0.357401,1.00281 0.19657,0.28704 0.443876,0.87908 0.549569,1.31564 0.217416,0.89803 0.763725,2.20843 1.489129,3.57188 0.270978,0.50932 0.759943,1.46182 1.086589,2.11666 0.326646,0.65485 0.89706,1.49427 1.267586,1.86538 1.123837,1.12561 1.623849,1.85029 1.459803,2.11572 -0.08574,0.13873 0.01515,0.25224 0.224203,0.25224 0.537442,0 1.080665,0.69663 0.718002,0.92077 -0.15496,0.0958 -0.212046,0.2869 -0.126857,0.42474 0.08519,0.13784 0.265726,0.18212 0.401191,0.0984 0.135466,-0.0837 0.246301,0.0376 0.246301,0.26958 0,0.60798 0.790959,1.72609 1.221055,1.72609 0.201549,0 0.366449,0.18015 0.366449,0.40034 0,0.42299 2.33429,3.03925 2.71169,3.03925 0.12158,0 0.36486,0.12305 0.54062,0.27345 1.09719,0.93889 5.05929,3.87629 6.33883,4.69945 0.83675,0.53829 1.52136,1.11466 1.52136,1.2808 0,0.16615 0.14883,0.29656 0.33073,0.2898 1.00133,-0.0372 1.52135,0.11146 1.52135,0.43488 0,0.459 4.01183,2.44103 5.42396,2.67969 0.58208,0.0984 1.1774,0.26462 1.32292,0.36943 0.14552,0.10481 1.27661,0.52915 2.51354,0.94296 1.23693,0.41382 2.40066,0.87015 2.58608,1.01408 0.18542,0.14394 0.41404,0.18478 0.50805,0.0908 0.094,-0.094 0.41855,-0.0104 0.72121,0.18586 1.54164,0.99954 12.388824,1.47004 16.293004,0.70671 z m -18.328194,-3.89753 c -0.90243,-0.13632 -1.58273,-1.11275 -1.46865,-2.10794 0.11938,-1.04136 1.108,-1.05505 1.22744,-0.017 0.0997,0.86652 0.96024,1.44318 1.49337,1.00072 0.55484,-0.46048 0.009,-1.92669 -1.24728,-3.35235 -1.00862,-1.14433 0.34836,-3.7187 1.74425,-3.30906 1.48046,0.43446 2.3606,1.81318 1.57415,2.46587 -0.32673,0.27117 -0.46266,0.2373 -0.75741,-0.18871 -0.77443,-1.11927 -0.93091,-1.22511 -1.32624,-0.89703 -0.58607,0.4864 -0.4476,1.02594 0.54538,2.12505 1.56853,1.73617 1.48372,3.60528 -0.19005,4.18876 -0.44453,0.15496 -0.82024,0.26391 -0.83491,0.24211 -0.0147,-0.0218 -0.35668,-0.0895 -0.76005,-0.15042 z m 21.614564,-0.72513 c -0.0898,-0.35783 -0.33021,-0.78913 -0.53421,-0.95844 -0.204,-0.1693 -0.37091,-0.51476 -0.37091,-0.76768 0,-0.25291 -0.29766,-0.89847 -0.66146,-1.43456 -0.3638,-0.53609 -0.66146,-1.13837 -0.66146,-1.33839 0,-0.20003 -0.20836,-0.73279 -0.46302,-1.18392 -0.46855,-0.83003 -0.24158,-1.33662 0.59531,-1.32871 0.25559,0.002 1.98438,3.46272 1.98438,3.97189 0,0.13796 0.13572,0.25084 0.30159,0.25084 0.21395,0 0.24353,-0.44217 0.10179,-1.52136 -0.35487,-2.70184 -0.3184,-3.35177 0.19372,-3.45318 0.43781,-0.0867 2.31331,3.27812 2.31331,4.15027 0,0.1623 0.11158,0.2951 0.24795,0.2951 0.24651,0 0.19337,-0.67319 -0.27012,-3.42203 -0.32355,-1.91886 -0.33445,-1.86964 0.41401,-1.86964 0.74776,0 0.74081,-0.0216 1.1916,3.70417 0.16727,1.38245 0.36597,2.9369 0.44156,3.45434 0.34304,2.34804 -1.31458,1.97016 -2.50747,-0.57162 -1.07991,-2.30106 -1.31902,-2.20753 -0.62511,0.24451 0.58041,2.05097 0.45708,2.42902 -0.79238,2.42902 -0.56091,0 -0.7746,-0.15463 -0.89908,-0.65061 z m -26.524674,-1.27949 c -0.20853,-0.25127 -0.12078,-0.69215 0.32912,-1.65365 0.33739,-0.72107 0.93743,-2.17425 1.3334,-3.22927 0.70729,-1.8845 1.07436,-2.29636 1.36699,-1.53377 0.14966,0.39 -0.15993,1.5388 -1.25115,4.64262 -0.72979,2.07579 -1.16644,2.51139 -1.77836,1.77407 z m 34.383914,-1.07271 c -0.16294,-0.19633 -0.41696,-1.00001 -0.56448,-1.78593 -0.14752,-0.78594 -0.53389,-2.17357 -0.85861,-3.08364 -0.93544,-2.62167 0.17619,-3.71765 1.55582,-1.53393 0.41811,0.66181 0.84949,1.20349 0.95864,1.20375 0.10914,2.6e-4 0.19843,0.16712 0.19843,0.37078 0,0.20367 0.47625,1.00414 1.05834,1.77882 0.58208,0.77468 1.05833,1.5478 1.05833,1.71805 0,0.49017 -0.72338,0.63746 -1.07139,0.21814 -0.65709,-0.79174 -1.57444,-0.47426 -1.57444,0.54489 0,0.97159 -0.26317,1.16848 -0.76064,0.56907 z m 0.37664,-4.0191 c -0.27119,-0.50357 -0.5934,-0.91559 -0.716,-0.91559 -0.34153,0 -0.27255,0.2541 0.33643,1.23946 0.71571,1.15805 1.03221,0.88801 0.37957,-0.32387 z m -21.71107,3.84311 c -0.42731,-0.69141 0.4481,-0.92224 3.49744,-0.92224 2.17287,0 3.10481,0.094 3.18126,0.32097 0.19953,0.59232 -6.3214,1.17938 -6.6787,0.60127 z m -17.256444,-0.44682 c -1.22662,-0.23693 -2.27756,-2.83998 -1.37244,-3.39937 0.15757,-0.0974 0.50961,-0.69758 0.78231,-1.33376 1.27512,-2.97476 3.27087,-3.83879 4.65592,-2.01575 1.18442,1.55896 -1.53291,7.24916 -3.29453,6.89888 -0.0997,-0.0198 -0.44673,-0.0873 -0.77126,-0.15 z m 1.2515,-1.38257 c 0,-0.13512 0.14924,-0.40301 0.33164,-0.59531 1.382,-1.45697 1.87451,-4.31838 0.74329,-4.31838 -0.77449,0 -2.80911,3.75125 -2.5232,4.65206 0.16362,0.51554 1.44827,0.74762 1.44827,0.26163 z m 43.024274,-2.23277 c -0.39519,-0.78107 -0.93214,-1.64942 -1.19324,-1.92967 -0.26109,-0.28026 -0.64474,-0.86159 -0.85256,-1.29186 -0.29282,-0.60626 -0.55501,-0.78253 -1.16513,-0.78332 -1.94512,-0.002 -1.72548,-0.71337 0.6115,-1.97913 2.01137,-1.08941 2.9117,-1.01927 1.64392,0.12806 -0.68991,0.62436 -0.69898,0.58127 0.51953,2.46654 2.29118,3.54492 2.71506,4.80951 1.61209,4.80951 -0.28766,0 -0.72443,-0.5274 -1.17611,-1.42013 z m -49.903444,-0.10463 c 0,-0.11102 -0.25697,-0.31938 -0.57104,-0.46302 -1.54317,-0.7058 -1.4548,-1.1663 0.79179,-4.12602 2.34364,-3.08757 2.75622,-3.26815 4.10031,-1.79464 0.92799,1.01736 0.80163,1.81135 -0.50245,3.15709 -0.49951,0.51546 -0.90819,1.15192 -0.90819,1.41436 0,0.97653 -1.03153,2.01407 -2.00239,2.01407 -0.49941,0 -0.90803,-0.0908 -0.90803,-0.20184 z m 1.3996,-1.45181 c 0.62297,-0.46572 0.70806,-1.60626 0.12884,-1.72698 -0.40956,-0.0854 -1.52452,1.27183 -1.52745,1.85927 -0.002,0.31634 0.91439,0.2297 1.39861,-0.13229 z m 2.15493,-3.33989 c 0.41861,-0.80949 0.3238,-1.09188 -0.36658,-1.09188 -0.46514,0 -1.42856,1.40661 -1.1525,1.68267 0.40367,0.40367 1.15616,0.11102 1.51908,-0.59079 z m 50.686734,2.28156 c -4.42349,-5.09252 -4.35727,-4.94966 -2.91254,-6.28343 1.74793,-1.61369 3.05191,-1.25959 1.35353,0.36755 -0.87177,0.83522 -0.83502,1.53814 0.10276,1.96542 0.51561,0.23493 0.73197,0.17489 1.31413,-0.36462 0.38329,-0.35522 0.86934,-0.64586 1.08013,-0.64586 0.66364,0 0.41651,1.0645 -0.40825,1.75849 -1.33447,1.12289 0.13466,2.78691 1.55083,1.75657 1.14948,-0.83632 1.28478,-0.87857 1.59938,-0.49949 0.23899,0.28796 0.0382,0.61799 -0.9622,1.58145 -1.50697,1.45133 -1.74548,1.48327 -2.71777,0.36392 z m -31.75167,-0.7677 c -2.208634,-0.19305 -4.372554,-0.64784 -4.894794,-1.02874 -0.14552,-0.10614 -0.68131,-0.27534 -1.19063,-0.376 -1.39256,-0.27523 -3.18836,-0.96475 -4.29422,-1.64883 -0.54281,-0.33577 -1.05455,-0.6105 -1.13719,-0.6105 -0.28737,0 -2.9088,-1.78311 -3.82901,-2.60452 -0.50932,-0.45464 -1.01221,-0.82851 -1.11752,-0.83084 -0.27161,-0.006 -6.29081,-6.13051 -6.29081,-6.40088 0,-0.12284 -0.41672,-0.81623 -0.92604,-1.54085 -0.50932,-0.72462 -0.92604,-1.37946 -0.92604,-1.4552 0,-0.0757 -0.39207,-0.70205 -0.87127,-1.39178 -0.88485,-1.27359 -2.03915,-3.80276 -2.03915,-4.46793 0,-0.20085 -0.10517,-0.57193 -0.23371,-0.82461 -0.76381,-1.50148 -1.35379,-3.72053 -1.35379,-5.09191 0,-0.45445 -0.11339,-1.03815 -0.25199,-1.29711 -0.48891,-0.91356 -0.80814,-5.69054 -0.44359,-6.63812 0.22731,-0.59087 0.97687,-5.89233 0.85091,-6.01829 -0.14463,-0.14463 1.08707,-3.6601 1.69214,-4.82963 0.2635,-0.50932 0.68904,-1.52136 0.94564,-2.24896 0.2566,-0.7276 0.80468,-1.737 1.21797,-2.24309 0.41328,-0.50611 0.75142,-1.07165 0.75142,-1.25678 0,-0.18512 0.0999,-0.33659 0.22211,-0.33659 0.12217,0 0.34537,-0.26789 0.496,-0.59531 0.23546,-0.51178 1.57304,-2.13925 3.67675,-4.47361 0.30712,-0.34079 1.01263,-0.91728 1.56779,-1.28108 0.55516,-0.3638 1.3886,-1.03928 1.85208,-1.50106 0.94937,-0.94587 2.66318,-1.93852 3.34685,-1.93852 0.24959,0 0.54901,-0.14883 0.66538,-0.33073 0.29269,-0.4575 1.78258,-1.25677 2.3427,-1.25677 0.25409,0 1.06915,-0.28699 1.81126,-0.63775 4.03196,-1.90572 13.899704,-2.79586 18.811794,-1.69697 4.5102,1.00899 9.19028,2.39687 9.6573,2.86389 0.0728,0.0728 0.57877,0.33872 1.12448,0.59103 0.5457,0.25231 0.99218,0.57973 0.99218,0.7276 0,0.14788 0.11907,0.26887 0.26459,0.26887 0.14552,0 0.48935,0.20836 0.76406,0.46302 0.27472,0.25466 1.12151,0.87974 1.88177,1.38906 0.76026,0.50932 1.60705,1.1344 1.88177,1.38906 0.27471,0.25466 0.61262,0.46302 0.75089,0.46302 1.03631,0 7.68609,9.39313 7.68609,10.85697 0,0.24135 0.19503,0.82977 0.4334,1.30759 1.55907,3.12523 2.61333,14.70871 1.72235,18.92399 -0.15379,0.7276 -0.41099,1.97776 -0.57155,2.77812 -0.41038,2.04569 -1.21719,4.13435 -1.98675,5.1433 -0.36068,0.47288 -0.65578,0.95822 -0.65578,1.07855 0,0.12033 -0.20836,0.44894 -0.46302,0.73025 -0.25467,0.28132 -0.87974,1.2019 -1.38907,2.04576 -2.28603,3.78753 -7.36385,9.03301 -9.525,9.83951 -0.21828,0.0815 -1.21631,0.6984 -2.21785,1.37099 -1.00153,0.67259 -1.97415,1.22289 -2.16137,1.22289 -0.18722,0 -0.737,0.19874 -1.22173,0.44164 -0.48474,0.24291 -1.09809,0.54682 -1.36302,0.67536 -3.51526,1.7056 -10.80224,2.74158 -16.05478,2.28249 z m 6.18331,-1.26974 c 0.36382,-0.13833 1.23478,-0.27609 1.93545,-0.30614 0.70067,-0.0301 1.39301,-0.14124 1.53853,-0.24711 0.14552,-0.10586 0.68131,-0.28114 1.19063,-0.3895 1.1791,-0.25085 4.79034,-1.70096 6.49251,-2.6071 0.71967,-0.38311 1.45188,-0.69656 1.62715,-0.69656 0.33299,0 2.81486,-1.45855 4.18687,-2.46054 3.75844,-2.74484 5.44418,-4.40624 7.13446,-7.03144 0.43333,-0.67301 0.93935,-1.31886 1.12448,-1.43524 0.18514,-0.11637 0.33775,-0.35449 0.33913,-0.52916 10e-4,-0.17467 0.47763,-1.06651 1.05833,-1.98186 0.5807,-0.91536 1.05582,-1.76035 1.05582,-1.87775 0,-0.11741 0.23813,-0.48803 0.52917,-0.8236 0.29104,-0.33557 0.52916,-0.77642 0.52916,-0.97966 0,-0.20325 0.16886,-0.69606 0.37523,-1.09514 1.50423,-2.90885 1.79418,-18.13422 0.37593,-19.7401 -0.1221,-0.13824 -0.2269,-0.55496 -0.2329,-0.92604 -0.006,-0.37108 -0.2946,-1.21047 -0.64135,-1.86531 -0.34675,-0.65484 -0.88167,-1.66688 -1.18873,-2.24896 -1.1889,-2.25383 -2.3186,-3.83192 -4.44286,-6.20632 -0.61847,-0.69129 -1.12448,-1.39711 -1.12448,-1.56848 0,-0.17138 -0.20836,-0.38291 -0.46302,-0.47007 -0.25467,-0.0872 -0.82021,-0.49411 -1.25678,-0.90433 -2.2146,-2.08101 -5.5705,-4.47684 -6.27082,-4.47684 -0.22619,0 -0.55948,-0.17859 -0.74063,-0.39688 -0.18116,-0.21828 -0.48977,-0.39687 -0.68581,-0.39687 -0.19604,0 -0.76034,-0.22686 -1.254,-0.50414 -0.49367,-0.27727 -1.59862,-0.70344 -2.45544,-0.94704 -0.85684,-0.2436 -2.09366,-0.60655 -2.7485,-0.80657 -1.22631,-0.37456 -6.49788,-0.93671 -7.67292,-0.81822 -0.3638,0.0367 -0.84571,-0.0214 -1.0709,-0.12909 -1.61123,-0.77047 -11.823044,2.14244 -14.936404,4.2606 -0.58208,0.39602 -1.93059,1.23263 -2.99668,1.85913 -2.11508,1.24296 -6.89792,5.762 -8.16515,7.71479 -1.78606,2.75232 -4.09572,7.48823 -4.55822,9.34658 -1.69811,6.82301 -1.70654,9.44427 -0.0506,15.74271 1.49151,5.67316 2.22629,7.79059 3.44366,9.92366 0.66798,1.17045 1.39118,2.46696 1.60711,2.88113 0.21592,0.41417 0.56496,0.81919 0.77564,0.90004 0.21068,0.0808 1.13251,0.92962 2.0485,1.88618 3.35387,3.50238 4.73808,4.77859 5.51452,5.08424 0.43656,0.17186 1.04102,0.53271 1.34324,0.80189 0.30222,0.26918 1.18329,0.65382 1.95793,0.85476 0.77464,0.20094 1.51556,0.55675 1.64647,0.79068 0.13092,0.23394 0.48877,0.42534 0.79522,0.42534 0.30646,0 0.92562,0.27924 1.37592,0.62054 0.45029,0.3413 1.11638,0.69028 1.48018,0.77551 0.3638,0.0852 1.13771,0.27343 1.71979,0.41823 0.58209,0.14479 1.70423,0.33257 2.493654,0.41727 0.78943,0.0847 1.49388,0.21257 1.56545,0.28415 0.23686,0.23686 5.02204,0.1349 5.69609,-0.12137 z m -5.41602,-3.10918 c -0.37835,-0.0585 -1.08247,-0.43578 -1.5647,-0.83836 l -0.876784,-0.73197 0.440224,-0.88243 c 0.69357,-1.39028 0.0436,-1.58148 -0.924534,-0.27198 -0.62023,0.83891 -1.69568,1.06708 -2.27919,0.48357 -0.23719,-0.23719 -0.51757,-0.19851 -1.19145,0.16441 -0.9812,0.5284 -5.7407,0.31046 -5.93235,-0.27166 -0.16081,-0.48843 1.15837,-0.92446 1.92037,-0.63475 0.9522,0.36202 2.131,0.32168 2.54462,-0.0871 0.19229,-0.19004 0.55977,-0.42512 0.81662,-0.52239 0.25684,-0.0973 0.58131,-0.47756 0.72105,-0.84509 0.28053,-0.73786 0.9016,-0.85003 1.98168,-0.35791 1.0253,0.46715 1.43708,-0.0788 0.66649,-0.88358 -1.07537,-1.1231 -1.83066,-3.92466 -1.05809,-3.92466 0.14552,0 0.26458,-0.12446 0.26458,-0.27657 0,-0.16846 -0.33615,-0.21405 -0.85989,-0.11662 -1.1341,0.21097 -2.71164,-0.45738 -3.94067,-1.6695 -1.13239,-1.11682 -1.06081,-1.64148 0.22396,-1.64148 1.20541,0 2.80688,-1.05551 2.03894,-1.34384 -0.32163,-0.12077 -0.61876,-0.0457 -0.81817,0.20672 -0.35234,0.446 -0.8775,0.24629 -0.8775,-0.3337 0,-0.70219 -0.73577,-0.39095 -1.28786,0.54478 -0.64967,1.10111 -1.51678,1.22302 -2.3524,0.33073 -0.57559,-0.61463 -1.37695,-4.00068 -1.02913,-4.3485 0.33848,-0.33847 1.03243,0.65441 1.08714,1.55544 0.0297,0.48978 0.2759,1.22909 0.54705,1.6429 l 0.49298,0.75239 0.59309,-0.74381 c 0.66304,-0.83153 0.60901,-1.99588 -0.1322,-2.84887 -0.38711,-0.44548 -0.38237,-0.50644 0.0586,-0.75322 0.45781,-0.2562 0.45563,-0.28544 -0.0474,-0.63778 -0.32422,-0.22709 -0.47712,-0.56083 -0.39711,-0.86679 0.11049,-0.42248 -0.0128,-0.49262 -0.81763,-0.46501 -0.79669,0.0273 -0.94779,0.12739 -0.9481,0.62783 -2.2e-4,0.35261 -0.16217,0.59531 -0.39725,0.59531 -0.21828,0 -0.39687,-0.22424 -0.39687,-0.4983 0,-0.49393 -0.66299,-0.81366 -1.70241,-0.821 -0.79576,-0.006 -2.79551,-1.06606 -2.79551,-1.48242 0,-0.2053 -0.23813,-0.37328 -0.52917,-0.37328 -0.61554,0 -0.70942,-0.66657 -0.13885,-0.98588 0.99825,-0.55865 -0.2766,-2.70767 -1.61016,-2.71423 -1.50022,-0.007 -3.96535,-2.16087 -4.92357,-4.30112 -0.74277,-1.65902 -0.50805,-2.37449 0.58675,-1.78858 0.51086,0.27341 0.53082,0.23346 0.37384,-0.74828 -0.0917,-0.57313 -0.0521,-1.10743 0.0885,-1.19429 0.30403,-0.1879 1.91936,0.38261 1.91936,0.67789 0,0.11362 0.16396,0.20658 0.36437,0.20658 0.27534,0 0.33158,-0.29092 0.23017,-1.19063 -0.20385,-1.80857 0.52027,-1.59184 1.54704,0.46302 0.45446,0.90951 1.03652,1.89177 1.29347,2.18281 0.47655,0.53979 1.28083,4.76503 0.96679,5.07906 -0.23053,0.23053 0.35105,0.87407 0.78993,0.87407 0.20046,0 0.36448,-0.23812 0.36448,-0.52917 0,-0.29104 0.10448,-0.52916 0.23218,-0.52916 0.31521,0 0.86226,0.68393 0.77134,0.96433 -0.10842,0.33439 0.80684,1.54683 1.01247,1.3412 0.0968,-0.0968 0.0302,-0.35184 -0.14807,-0.56665 -0.17828,-0.21481 -0.25749,-0.60465 -0.17603,-0.86629 0.19946,-0.64064 -0.10479,-1.06212 -1.18404,-1.64027 -0.4976,-0.26656 -0.94628,-0.695 -0.99707,-0.95208 -0.2448,-1.23925 3.17585,0.81115 4.08188,2.44675 0.43781,0.79036 0.68059,0.97404 1.19062,0.90078 0.96704,-0.13889 0.95281,-0.18285 -0.55567,-1.71737 -0.77142,-0.78472 -1.59253,-1.82973 -1.8247,-2.32223 -0.37382,-0.79302 -0.5678,-0.91223 -1.69553,-1.04196 -1.28368,-0.14768 -1.75422,-0.51713 -1.76167,-1.38316 -0.007,-0.79051 0.74664,-0.81812 1.87887,-0.0688 1.23774,0.81911 1.41779,0.77295 1.0241,-0.26251 -0.15553,-0.40908 -0.21615,-0.91743 -0.13471,-1.12966 0.16107,-0.41974 -1.03906,-2.1687 -1.48816,-2.1687 -1.19762,0 -2.86599,-2.46016 -2.99819,-4.42111 -0.0854,-1.26628 0.49238,-1.89039 0.96619,-1.04372 0.52778,0.94308 0.80051,0.44376 0.61774,-1.13095 -0.26062,-2.24553 0.0107,-3.00092 0.6817,-1.89762 0.27443,0.45127 0.61176,0.82048 0.74961,0.82048 0.13785,0 0.32622,0.23813 0.41859,0.52917 0.24085,0.75883 0.92605,0.66857 0.92605,-0.12198 0,-0.70075 -0.75059,-1.54446 -1.91823,-2.15623 -0.88643,-0.46442 -1.00782,-1.56594 -0.20081,-1.82208 0.67138,-0.21309 1.0607,0.0281 1.0607,0.65712 0,0.52454 1.24583,1.66996 1.58701,1.4591 0.40668,-0.25135 0.4508,-1.50475 0.0898,-2.55245 -0.52149,-1.51365 -0.56155,-3.8952 -0.0817,-4.85619 0.48465,-0.97057 1.40615,-1.08557 1.53303,-0.19133 0.0777,0.5473 0.19491,0.48073 1.28129,-0.7276 1.51853,-1.68897 1.94053,-1.71726 1.94053,-0.1301 0,1.10436 0.0408,1.17812 0.51177,0.92605 0.7874,-0.42141 0.88385,-0.34197 0.7115,0.586 -0.0878,0.47294 -0.20392,1.12679 -0.25798,1.45299 -0.14863,0.89686 -1.43828,2.70594 -2.11145,2.96188 -0.32746,0.12449 -0.7539,0.41736 -0.94763,0.6508 -0.19374,0.23344 -0.51922,0.42444 -0.72329,0.42444 -0.40699,0 -0.88709,1.03664 -0.88709,1.91542 v 0.55807 l 0.61236,-0.57529 c 0.72675,-0.68274 1.12434,-0.72843 1.34457,-0.15454 0.19037,0.49611 -0.009,0.89862 -0.45119,0.91097 -0.96102,0.0268 -2.25168,1.93442 -2.04731,3.0259 l 0.14712,0.78574 0.52795,-0.69354 c 0.29038,-0.38144 0.73584,-1.07127 0.98992,-1.53295 0.30054,-0.54607 0.62414,-0.80713 0.92605,-0.74704 0.46241,0.092 0.46916,0.15849 0.24989,2.46038 -0.0405,0.42529 0.0885,0.51483 0.65732,0.45612 2.20518,-0.22759 0.59218,4.29724 -2.0067,5.6293 -1.17538,0.60243 -1.01099,3.319 0.32021,5.29166 1.49341,2.21305 1.82023,2.26306 0.8007,0.12252 -0.41843,-0.87851 -0.83016,-2.10352 -0.91497,-2.72224 -0.30203,-2.20356 1.27271,-2.20979 2.06882,-0.008 0.35687,0.9869 0.74401,1.17369 0.74401,0.35895 0,-1.71194 1.9185,0.63974 2.43101,2.97991 0.35557,1.62355 0.69893,2.14435 0.90194,1.36804 0.20118,-0.76933 1.16156,-1.339 1.46096,-0.86661 0.39259,0.61942 0.25191,1.21454 -0.32262,1.36478 -0.30568,0.0799 -0.48046,0.26722 -0.3884,0.41618 0.0921,0.14896 0.32598,0.20998 0.51982,0.1356 0.65647,-0.25192 0.75756,1.45358 0.14744,2.48765 -0.65839,1.1159 -0.46098,1.38651 1.1434,1.56735 1.644944,0.18541 3.234994,-1.69506 2.176244,-2.57374 -0.21828,-0.18115 -0.39687,-0.66626 -0.39687,-1.07801 0,-0.59025 -0.25354,-0.92309 -1.198274,-1.57308 -3.44323,-2.369 -5.04225,-5.17141 -4.74721,-8.31986 0.1474,-1.57302 0.10315,-1.97733 -0.25569,-2.33617 -0.69221,-0.6922 -0.29667,-3.04986 0.54719,-3.26165 0.34479,-0.0865 0.62689,-0.34342 0.62689,-0.57085 0,-0.22743 0.15862,-0.60147 0.35248,-0.83121 1.21043,-1.43443 2.03836,-5.34576 1.16888,-5.52202 -0.28455,-0.0577 -0.46302,0.0666 -0.46302,0.32241 0,0.68725 -1.2182,0.50058 -1.83288,-0.28086 -1.29943,-1.65196 0.14209,-4.07372 1.71616,-2.88315 1.74012,1.31616 2.32992,-0.75987 1.04276,-3.67038 -0.77007,-1.74126 -0.82913,-2.41796 -0.23105,-2.64747 0.58545,-0.22466 1.15709,0.30247 1.15709,1.06699 0,0.44528 0.14933,0.62906 0.51115,0.62906 0.73709,0 2.663854,3.1111 2.663854,4.30126 0,0.56737 0.50146,0.85937 0.86004,0.50079 0.36048,-0.36049 0.3064,-2.10403 -0.0797,-2.56925 -0.43152,-0.51995 -0.19646,-1.55114 0.37858,-1.66082 0.7315,-0.13952 0.94917,0.4093 0.95369,2.40458 0.002,0.98227 0.1132,1.78594 0.24659,1.78594 0.39638,0 0.45563,-0.5161 0.2548,-2.21935 -0.23088,-1.9582 -0.28196,-1.92223 2.67271,-1.88206 2.81132,0.0382 2.83506,0.0531 2.12032,1.32561 -0.61463,1.0943 -0.63077,2.64351 -0.0275,2.64351 0.44676,0 0.65028,-0.37564 1.18953,-2.19547 0.49943,-1.68541 2.61059,-4.5514 3.35269,-4.5514 0.62337,0 0.65611,0.54464 0.0977,1.62457 -1.22606,2.37093 -0.20439,6.29712 1.19869,4.60651 0.73506,-0.88568 1.44054,-0.3463 1.71279,1.30954 0.26553,1.615 -0.31873,2.28344 -1.44541,1.65365 -1.03468,-0.57838 -1.31461,-0.58238 -1.31461,-0.0188 0,0.49735 0.47133,2.09083 0.82623,2.79332 0.12766,0.25269 0.23211,0.62465 0.23211,0.82657 0,0.65121 1.33814,2.78422 1.84825,2.94612 0.65948,0.20931 1.66666,1.94671 1.44164,2.48685 -0.0973,0.23363 -0.19277,1.47714 -0.21208,2.76335 -0.0313,2.08302 -0.10016,2.39125 -0.63042,2.82054 -0.32742,0.26508 -0.59531,0.74672 -0.59531,1.07031 0,1.04527 -0.5915,2.60044 -1.21009,3.18158 -0.62089,0.5833 -1.17116,0.50521 -1.17116,-0.1662 0,-0.50307 -0.262,-0.47319 -1.03024,0.11749 -0.64135,0.49311 -0.57138,1.16762 0.1068,1.02962 0.34422,-0.07 0.39427,0.004 0.39427,0.58151 0,0.63081 -1.6184,1.1364 -1.7709,0.55323 -0.15552,-0.59469 -0.2996,-0.65157 -0.81775,-0.3228 -0.18683,0.11855 -0.27014,0.39677 -0.18514,0.61827 0.17468,0.45523 -0.82683,1.23307 -1.45954,1.13356 -0.21828,-0.0343 -0.68347,-0.1059 -1.03374,-0.15904 -0.3503,-0.0532 -0.68762,0.0522 -0.74965,0.23409 -0.16197,0.47494 1.82959,0.42908 3.02314,-0.0696 1.53603,-0.6418 1.52938,0.38807 -0.007,1.14239 -1.57259,0.77191 -0.0655,1.54961 2.57451,1.3285 l 1.02875,-0.0862 0.0377,-1.75509 c 0.0399,-1.85551 0.39981,-2.61054 1.24445,-2.61054 0.31742,0 0.49677,-0.18769 0.49677,-0.51986 0,-0.42924 0.98887,-1.28692 1.27294,-1.10407 0.0453,0.0291 0.52966,-0.81394 1.07639,-1.87352 0.86015,-1.66696 1.08446,-1.92051 1.66494,-1.882 0.52355,0.0347 0.76555,-0.15406 1.10214,-0.85989 0.63521,-1.33206 1.23359,-1.19322 1.23359,0.28621 0,1.40545 0.32379,1.5214 0.92357,0.33073 1.12435,-2.23204 0.75729,-3.68843 -1.49827,-5.9446 -0.84444,-0.84467 -1.30859,-2.82278 -0.82451,-3.5139 0.20399,-0.29124 0.25798,-0.52952 0.11998,-0.52952 -0.13799,0 -0.32899,-0.32742 -0.42444,-0.7276 -0.0954,-0.40018 -0.23544,-0.93597 -0.3111,-1.19063 -0.24618,-0.82866 0.9609,-0.5323 1.90374,0.4674 l 0.8775,0.93041 0.27675,-0.99656 c 0.15221,-0.54811 0.27741,-1.14312 0.27822,-1.32225 0.002,-0.48074 -1.18318,-0.69296 -1.85683,-0.33244 -0.47351,0.25342 -0.66252,0.23507 -0.9941,-0.0965 -0.59184,-0.59185 0.0206,-1.22973 1.18063,-1.22973 1.25899,0 0.87606,-0.42971 -0.57712,-0.64762 -1.3811,-0.20711 -5.41243,-3.48827 -4.86163,-3.95695 0.30143,-0.25649 2.33893,-0.38671 2.47997,-0.15851 0.0901,0.14584 0.32975,0.26516 0.5325,0.26516 0.24452,0 0.15018,-0.23571 -0.2802,-0.70009 -0.35685,-0.38506 -0.64882,-0.86131 -0.64882,-1.05834 0,-0.19703 -0.10584,-0.35824 -0.23519,-0.35824 -0.12935,0 -0.21865,0.19555 -0.19844,0.43455 0.0849,1.00335 -0.58979,0.54433 -0.98762,-0.67197 -0.69351,-2.1203 -0.29041,-2.9129 0.82118,-1.61466 0.2492,0.29104 0.58446,0.52917 0.74504,0.52917 0.16057,0 0.5806,0.30929 0.93339,0.68732 0.35278,0.37803 0.98254,0.93167 1.39946,1.23031 l 0.75802,0.54297 -0.17979,-0.56647 c -0.47817,-1.50659 0.87656,-1.14706 2.09241,0.5553 0.9014,1.26209 1.00427,3.14805 0.2357,4.32103 -0.34084,0.5202 -0.36596,0.73411 -0.11535,0.98218 0.24928,0.24675 0.37312,0.22377 0.55795,-0.10354 0.77433,-1.37121 1.23308,-1.68686 1.9662,-1.35282 0.94949,0.43261 0.77693,1.09987 -0.38141,1.47481 -1.16041,0.3756 -1.2405,0.81191 -0.51454,2.80293 0.48218,1.32244 1.28163,2.17378 1.31313,1.39837 0.01,-0.23795 2.88762,-3.40392 2.93612,-3.22997 0.58868,2.11141 -0.57102,5.80101 -2.34331,7.45528 -2.59137,2.41881 -2.68309,2.53 -2.53956,3.07887 0.18839,0.72041 0.31693,0.71181 1.40952,-0.0943 1.23788,-0.91328 1.64053,-0.86258 1.53812,0.19366 -0.0669,0.69032 -0.23588,0.90031 -0.87666,1.08961 -1.47221,0.43493 -2.05292,0.89025 -2.45183,1.92239 -0.66437,1.71902 -0.43538,3.44912 0.31982,2.41632 0.18605,-0.25444 0.43483,-0.46261 0.55285,-0.46261 0.11802,0 0.42481,-0.19025 0.68176,-0.42279 0.50696,-0.4588 1.02969,-0.3034 1.02969,0.30612 0,0.45103 0.42115,0.5055 0.67927,0.0879 0.0997,-0.16137 0.21647,-1.00926 0.25941,-1.88421 0.043,-0.87495 0.2065,-1.71923 0.36345,-1.87618 0.15696,-0.15695 0.28537,-0.44497 0.28537,-0.64004 0,-0.5144 1.09823,-1.92075 1.49993,-1.92075 0.3669,0 0.64963,0.87387 0.54719,1.69132 -0.0932,0.74389 0.55851,0.83014 0.83225,0.11014 0.52344,-1.37675 2.70396,-2.93674 3.45559,-2.47221 0.65942,0.40754 -0.56204,3.46265 -1.66403,4.1621 -0.47749,0.30306 0.0275,0.56555 1.01643,0.52837 1.53396,-0.0577 1.20647,0.59679 -1.13586,2.26991 -0.58836,0.42026 -1.04138,0.55092 -1.50588,0.43434 -0.85737,-0.21519 -0.84996,0.1363 0.0323,1.53394 0.41125,0.65146 0.70753,1.51648 0.72312,2.11124 0.0234,0.89166 0.12482,1.04007 0.88153,1.28981 1.04186,0.34385 3.2549,2.37961 3.2549,2.99416 0,1.13529 -0.78735,2.29683 -1.90657,2.81265 -0.62487,0.28799 -2.14817,1.27645 -3.38509,2.19658 l -2.24896,1.67296 -0.26459,2.01296 c -0.14552,1.10713 -0.35388,2.10107 -0.46302,2.20874 -0.10914,0.10768 -0.19843,0.46798 -0.19843,0.80068 0,1.56507 -1.1156,2.4819 -3.01997,2.4819 -0.45338,0 -1.27818,0.24325 -1.83289,0.54055 -0.55471,0.29731 -1.20779,0.47797 -1.45129,0.40146 -0.2435,-0.0765 -1.03804,0.0412 -1.76565,0.26162 -2.62798,0.79602 -6.13511,-0.0925 -5.94015,-1.50483 0.27948,-2.02473 -1.16989,-1.83111 -1.98328,0.26494 -0.31675,0.81625 -0.81406,1.49287 -1.38458,1.8838 -1.13207,0.7757 -0.95515,0.94705 0.57898,0.56075 1.06156,-0.2673 1.36523,-0.23817 2.43082,0.23319 l 1.21771,0.53865 0.37244,-0.53173 c 0.46547,-0.66454 0.76308,-0.66491 2.06223,-0.003 1.28889,0.65711 1.49702,0.65719 2.57329,0.001 0.90366,-0.55095 2.58609,-0.72373 2.58609,-0.26556 0,0.52752 -1.07542,1.32291 -1.78865,1.32291 -0.41237,0 -1.04085,0.28796 -1.44365,0.66146 -0.82454,0.76456 -1.18561,0.80886 -2.21972,0.27236 -0.66001,-0.34242 -0.82125,-0.34242 -1.34385,0 -0.72549,0.47535 -2.49944,0.51032 -2.96124,0.0584 -0.27322,-0.2674 -0.32932,-0.10276 -0.29296,0.8599 0.1003,2.65544 -0.1327,2.91042 -2.65963,2.91042 -1.64572,0 -1.91154,-0.0769 -2.71997,-0.7867 l -0.89599,-0.78669 -0.28689,0.62966 c -0.17226,0.37806 -0.60962,0.70053 -1.09456,0.80704 -0.44421,0.0976 -0.87558,0.2873 -0.9586,0.42163 -0.15257,0.24686 -0.2312,0.25 -1.46909,0.0585 z m 0.82021,-1.63042 c 0,-0.12573 0.47841,-0.56013 1.06313,-0.96534 1.18389,-0.82044 1.22391,-0.93539 0.25979,-0.7462 -0.8861,0.17388 -2.22977,1.2785 -2.0025,1.64625 0.21493,0.34775 0.67958,0.39239 0.67958,0.0653 z m 0.40898,-2.27295 c 0.9443,-0.39455 1.23135,-0.93803 0.49545,-0.93803 -0.59934,0 -2.75651,1.83457 -2.75651,2.34427 0,0.31684 0.17545,0.23923 0.67356,-0.29796 0.37046,-0.39953 1.08483,-0.89825 1.5875,-1.10828 z m 5.94102,1.09926 c 0,-0.18918 -0.14783,-0.49179 -0.32852,-0.67248 -0.26163,-0.26163 -0.24816,-0.37931 0.0661,-0.57803 0.58808,-0.3718 0.66637,-0.33774 1.55788,0.67763 0.9722,1.10728 1.21348,0.42862 0.27279,-0.76727 -0.64396,-0.81867 -3.02189,-1.08095 -2.72231,-0.30027 0.10567,0.27539 -0.0183,0.39688 -0.40518,0.39688 -0.75992,0 -0.73321,0.89272 0.0378,1.26458 0.82599,0.39836 1.52135,0.38874 1.52135,-0.021 z m -11.932484,-0.99517 c -0.5128,-0.31693 -0.63801,-0.0685 -0.21958,0.43571 0.25518,0.30747 0.38996,0.33868 0.46682,0.10808 0.0594,-0.17831 -0.0518,-0.42302 -0.24724,-0.54379 z m 9.022074,-0.76192 c 0,-0.35729 -0.48232,-0.60497 -0.79807,-0.40983 -0.14789,0.0914 -0.2004,0.27703 -0.11668,0.41249 0.19862,0.32137 0.91475,0.31928 0.91475,-0.003 z m 7.01145,-0.54479 c -0.0899,-0.14552 -0.27555,-0.26458 -0.41249,-0.26458 -0.13693,0 -0.24896,0.11906 -0.24896,0.26458 0,0.14553 0.18562,0.26459 0.41249,0.26459 0.22687,0 0.3389,-0.11906 0.24896,-0.26459 z m -5.02457,-1.59155 c 0.0698,-0.113 -0.0503,-0.54527 -0.26687,-0.9606 -0.21661,-0.41532 -0.39457,-0.90397 -0.39547,-1.08587 -0.002,-0.40783 -0.90769,-0.43084 -1.6351,-0.0415 -0.83003,0.44422 -5.67578,-0.1826 -6.622374,-0.85663 -1.30175,-0.92693 -1.91978,1.31181 -0.75114,2.72095 l 0.51802,0.62462 -0.12061,-1.0007 c -0.14901,-1.23626 0.49567,-1.65449 1.170754,-0.75951 0.65203,0.86442 3.2503,1.02298 4.93434,0.30111 l 1.26052,-0.54031 0.53193,0.57096 c 0.41289,0.44319 0.46852,0.67249 0.24858,1.02467 -0.24342,0.38978 -0.1929,0.43642 0.35854,0.33101 0.35305,-0.0675 0.69904,-0.21516 0.76888,-0.32816 z m 1.18812,-2.00424 c 0,-0.21426 -0.1786,-0.4581 -0.39688,-0.54186 -0.45253,-0.17365 -0.54338,-0.88943 -0.11289,-0.88943 0.15619,0 0.24386,-0.20836 0.19481,-0.46302 -0.20064,-1.04185 -0.87666,-0.48625 -0.82688,0.67959 0.065,1.52197 1.14184,2.66756 1.14184,1.21472 z m 10.18164,-0.27364 c 0.23641,-0.23642 0.39092,-0.68291 0.34334,-0.99219 -0.0864,-0.56156 -0.24299,-0.60967 -1.01047,-0.31041 -0.57359,0.22367 -1.23235,-1.56289 -0.7781,-2.11023 0.253,-0.30485 0.18293,-0.43685 -0.36428,-0.68617 -0.98521,-0.4489 -2.49688,0.61344 -3.13809,2.20529 -0.29412,0.73019 0.50396,0.58812 1.25627,-0.22364 0.59742,-0.64463 0.65708,-0.65904 0.82133,-0.19844 0.28179,0.7902 0.93116,1.42272 1.46061,1.42272 0.26849,0 0.48816,0.1786 0.48816,0.39688 0,0.29474 -0.31041,0.39687 -1.20624,0.39687 -0.73678,0 -1.1426,0.10298 -1.04272,0.26459 0.2735,0.44253 2.68827,0.31664 3.17019,-0.16527 z m 5.09279,-1.30551 c 0.66929,-0.43854 0.74514,-1.1532 0.31872,-3.00311 -0.18475,-0.80149 -0.18273,-1.25279 0.006,-1.44198 0.15147,-0.15146 0.27539,-0.48267 0.27539,-0.73602 0,-0.66886 0.5572,-0.90872 0.9292,-0.39999 0.47508,0.64971 0.92288,0.52979 0.92288,-0.24715 0,-0.51752 -0.19358,-0.75751 -0.79375,-0.98404 -0.43656,-0.16479 -0.79375,-0.39257 -0.79375,-0.50619 1e-5,-0.11362 -0.0987,-0.20658 -0.21944,-0.20658 -0.12069,0 -0.20999,0.26789 -0.19843,0.59532 0.0218,0.61851 0.021,0.61866 -1.96337,0.37204 -0.3638,-0.0452 -0.92152,-0.22183 -1.23938,-0.39249 -1.43325,-0.76951 -4.19238,0.30165 -3.92404,1.52341 0.15949,0.72613 0.11403,0.78149 -0.7065,0.86025 -0.5647,0.0542 -0.87696,0.22516 -0.87696,0.48012 0,0.29506 0.24829,0.37455 0.97455,0.31198 0.536,-0.0462 1.22286,0.0489 1.52637,0.21137 0.43561,0.23313 0.71793,0.1972 1.34056,-0.17059 0.92095,-0.54402 0.98469,-0.76803 0.27162,-0.9545 -0.60474,-0.15815 -1.00642,-1.4192 -0.58598,-1.83965 0.20617,-0.20616 0.40971,-0.185 0.72322,0.0752 0.23997,0.19916 0.6915,0.49315 1.0034,0.65332 0.58031,0.29799 0.69592,1.48649 0.16243,1.66972 -0.14124,0.0485 -0.25679,0.2696 -0.25679,0.49133 0,0.28235 0.13872,0.3443 0.46302,0.20677 1.28736,-0.54597 1.84424,-0.10944 2.28785,1.79339 0.24126,1.03487 -0.56479,0.97777 -1.45311,-0.10293 l -0.68661,-0.83531 -0.82666,0.48832 c -0.84718,0.50044 -0.86578,0.61095 -0.39302,2.3351 0.16417,0.59876 2.67641,0.43153 3.71213,-0.2471 z m -19.84171,0.0817 c -0.0626,-0.18241 -0.57676,-0.34181 -1.14653,-0.35543 -1.8062,-0.0432 -1.95911,-0.0914 -1.95911,-0.61786 0,-1.23526 0.56263,-1.37661 5.26006,-1.32154 l 4.39723,0.0516 0.0332,-1.68956 c 0.0183,-0.92926 0.14957,-1.98722 0.29176,-2.35102 0.1422,-0.3638 0.20333,-1.10958 0.13585,-1.65729 -0.0675,-0.54771 0.005,-1.14921 0.16018,-1.33668 0.15559,-0.18747 0.21445,-0.60255 0.13081,-0.9224 -0.0836,-0.31985 -0.0489,-0.58391 0.0772,-0.58681 1.67012,-0.0383 5.36482,-0.30861 5.72324,-0.41865 0.66644,-0.20463 0.27931,-0.66483 -0.41693,-0.49564 -1.01034,0.24553 -4.94472,0.30994 -4.94472,0.081 0,-0.12086 -0.35946,-0.21974 -0.79879,-0.21974 -0.69346,0 -0.78034,0.0785 -0.65883,0.59531 0.29343,1.24805 -0.0313,1.33986 -4.63364,1.31009 -2.35957,-0.0153 -4.36112,-0.0988 -4.44789,-0.18552 -0.2787,-0.2787 0.38247,-1.04159 1.03652,-1.19599 0.45236,-0.10679 0.53555,-0.2103 0.29065,-0.36166 -1.8149,-1.12167 -2.61589,1.01595 -2.48308,6.62668 0.0737,3.1157 0.0164,4.57982 -0.18435,4.70387 -0.74422,0.45996 -0.10747,0.67805 1.97958,0.67805 1.70092,0 2.24253,-0.083 2.15755,-0.33072 z m -2.53249,-2.86318 c -1.3175,-0.5228 -0.45108,-0.89504 2.2252,-0.95602 1.44408,-0.0329 3.31398,-0.10721 4.15532,-0.16512 1.4857,-0.10226 2.09083,0.13887 1.59437,0.63534 -0.13361,0.13361 -1.6651,0.30488 -3.4033,0.38058 -1.7382,0.0757 -3.33896,0.18549 -3.55724,0.24395 -0.21829,0.0585 -0.67474,-0.004 -1.01435,-0.13873 z m -0.24243,-1.76154 c -1.19217,-0.1458 -1.10516,-0.78213 0.1323,-0.96751 2.44135,-0.36573 8.82898,-0.12484 8.74089,0.32964 -0.0726,0.37456 -0.57233,0.43852 -3.65182,0.46743 -1.96225,0.0184 -3.74631,0.088 -3.96459,0.15455 -0.21829,0.0666 -0.78383,0.0737 -1.25678,0.0159 z m -0.72953,-2.19143 c -0.3009,-0.48687 -0.008,-0.57229 2.29827,-0.66974 1.21087,-0.0512 3.42197,-0.15746 4.91356,-0.23622 2.23456,-0.11798 2.71198,-0.077 2.71198,0.23283 0,0.47158 -0.70345,0.70223 -2.02127,0.66272 -0.56179,-0.0168 -2.52843,0.0454 -4.37031,0.13823 -2.3548,0.11873 -3.4033,0.0808 -3.53223,-0.12782 z m -0.0605,-1.78384 c -0.22259,-0.58007 -0.0353,-0.61208 4.19642,-0.71748 2.23743,-0.0557 4.06806,-0.12013 4.06806,-0.14311 0,-0.023 0.32742,-0.0956 0.7276,-0.16138 0.59449,-0.0977 0.72761,-0.0211 0.72761,0.41863 0,0.29602 -0.14883,0.55018 -0.33073,0.5648 -5.03772,0.4048 -9.24179,0.42206 -9.38896,0.0385 z m 9.90042,7.55819 c -0.0845,-0.21107 -0.14715,-0.14837 -0.15985,0.15985 -0.0115,0.27891 0.0511,0.43519 0.13897,0.34727 0.0879,-0.0879 0.0973,-0.31613 0.0209,-0.50712 z m -15.516964,-0.0711 c -0.17586,-0.2119 -0.2373,-0.51869 -0.13653,-0.68174 0.12246,-0.19815 -0.0606,-0.2678 -0.55213,-0.21003 -1.45316,0.17081 -1.00374,0.78981 0.90988,1.2532 0.0542,0.0131 -0.0453,-0.14952 -0.22122,-0.36143 z m 24.516424,-1.09491 c 0.30611,-0.6596 0.29778,-0.66979 -0.25008,-0.30602 -0.67997,0.45149 -0.90937,0.99328 -0.41935,0.99041 0.19403,-0.001 0.49527,-0.30911 0.66943,-0.68439 z m -5.70686,-0.0412 c 0.33589,-0.4283 0.32344,-0.43391 -0.16604,-0.0749 -0.29104,0.21348 -0.57878,0.42184 -0.63941,0.46302 -0.0606,0.0412 0.0141,0.0749 0.16604,0.0749 0.15195,0 0.43969,-0.20836 0.63941,-0.46302 z m 11.60792,-0.0661 c 0,-0.14552 -0.11907,-0.26458 -0.26459,-0.26458 -0.14552,0 -0.26458,0.11906 -0.26458,0.26458 0,0.14552 0.11906,0.26458 0.26458,0.26458 0.14552,0 0.26459,-0.11906 0.26459,-0.26458 z m 1.05833,-1.33853 c 0,-0.13693 -0.17859,-0.24897 -0.39688,-0.24897 -0.40915,0 -0.52564,0.3122 -0.22767,0.61017 0.21138,0.21138 0.62455,-0.0276 0.62455,-0.3612 z m -30.030224,-0.24897 c -0.52111,-0.57582 -0.92604,-0.68779 -0.92604,-0.25606 0,0.15021 0.26789,0.38079 0.59531,0.5124 0.84882,0.34118 0.86214,0.33086 0.33073,-0.25634 z m 2.562054,-0.58649 c -0.189854,-0.18986 -0.313094,-0.20548 -0.313094,-0.0397 0,0.15037 0.0794,0.35278 0.17639,0.44979 0.097,0.097 0.237904,0.11488 0.313094,0.0397 0.0752,-0.0752 -0.004,-0.27759 -0.17639,-0.44979 z m 14.75762,0.20233 c 0.38076,-0.4588 0.27492,-1.2478 -0.18807,-1.40196 -0.20278,-0.0675 -0.27263,0.0417 -0.1804,0.28204 0.0828,0.21572 0.0233,0.47082 -0.13211,0.56689 -0.33961,0.20989 -0.37875,0.93719 -0.0504,0.93719 0.1277,0 0.37565,-0.17287 0.55101,-0.38416 z m -16.129044,-0.40959 c 0,-0.14552 -0.12609,-0.26458 -0.2802,-0.26458 -0.15411,0 -0.20661,0.11906 -0.11668,0.26458 0.0899,0.14552 0.21603,0.26458 0.2802,0.26458 0.0642,0 0.11668,-0.11906 0.11668,-0.26458 z m 14.816674,-0.80936 c 0,-0.13694 -0.11906,-0.24897 -0.26458,-0.24897 -0.14552,0 -0.26458,0.18562 -0.26458,0.41249 0,0.22687 0.11906,0.3389 0.26458,0.24897 0.14552,-0.0899 0.26458,-0.27556 0.26458,-0.41249 z m -15.875004,-0.0978 c 0,-0.42373 -0.69985,-1.20953 -1.07724,-1.20953 -0.31633,0 -0.30966,0.0993 0.0614,0.9136 0.32873,0.72148 1.01587,0.92164 1.01587,0.29593 z m 2.513544,0.11339 c 0.0899,-0.14552 0.0374,-0.26458 -0.11668,-0.26458 -0.154114,0 -0.280204,0.11906 -0.280204,0.26458 0,0.14552 0.0525,0.26458 0.11668,0.26458 0.0642,0 0.190264,-0.11906 0.280204,-0.26458 z m 0.13229,-1.5875 c 0,-0.61726 -0.334474,-0.68569 -0.772404,-0.15802 -0.23653,0.285 -0.22869,0.40297 0.0337,0.50828 0.613364,0.2461 0.738654,0.18669 0.738654,-0.35026 z m 13.59809,-0.38063 c 0.78129,-0.63886 0.82014,-1.47145 0.0687,-1.47145 -0.49641,0 -0.86684,0.50109 -1.02684,1.38906 -0.15868,0.88062 -0.0314,0.89156 0.95818,0.0824 z m 3.86442,0.11605 c 0,-0.14552 -0.11907,-0.26459 -0.26459,-0.26459 -0.14552,0 -0.26458,0.11907 -0.26458,0.26459 0,0.14552 0.11906,0.26458 0.26458,0.26458 0.14552,0 0.26459,-0.11906 0.26459,-0.26458 z m 12.90761,-2.45567 c 0.54066,-0.40473 1.2509,-0.84827 1.57832,-0.98564 0.32743,-0.13737 0.59532,-0.42428 0.59532,-0.63757 0,-0.55255 -0.44498,-0.75548 -0.62543,-0.28523 -0.20506,0.53436 -0.46696,0.49964 -1.52046,-0.20156 -0.98705,-0.65696 -1.95397,-0.66171 -2.20375,-0.0108 -0.18094,0.47152 0.53793,1.40148 1.08335,1.40148 0.19573,0 0.35587,0.17859 0.35587,0.39687 0,0.52266 -0.48068,0.47361 -1.45521,-0.14852 -1.09278,-0.69762 -1.81518,-1.0017 -2.05052,-0.86313 -0.37468,0.22061 -0.19743,0.49923 0.52917,0.83178 1.93463,0.88546 2.22117,1.15204 1.63059,1.51704 -0.1582,0.0978 -0.42014,0.0453 -0.58208,-0.11668 -0.45357,-0.45357 -0.82748,-0.34855 -0.43647,0.12259 0.28519,0.34362 0.28492,0.45487 -0.002,0.63188 -0.19119,0.11816 -0.26396,0.35019 -0.16172,0.51563 0.12397,0.20058 0.53495,0.0121 1.2337,-0.56574 0.57629,-0.47658 1.49016,-1.19766 2.03081,-1.60239 z m -0.4722,-0.70383 c 0,-0.16125 -0.29765,-0.40635 -0.66146,-0.54467 -0.3638,-0.13832 -0.66145,-0.38623 -0.66145,-0.55093 0,-0.16522 0.1889,-0.22695 0.42145,-0.13771 0.2318,0.089 0.71401,0.23516 1.07157,0.3249 0.39688,0.0996 0.6192,0.32252 0.57073,0.57226 -0.0924,0.4762 -0.74084,0.77042 -0.74084,0.33615 z m -34.925004,2.77824 c 0,-0.0642 -0.11907,-0.19026 -0.26459,-0.2802 -0.14552,-0.0899 -0.26458,-0.0374 -0.26458,0.11667 0,0.15411 0.11906,0.2802 0.26458,0.2802 0.14552,0 0.26459,-0.0525 0.26459,-0.11667 z m 24.077094,-0.41249 c -0.64016,-0.50074 -1.05834,-0.6609 -1.05834,-0.40533 0,0.12776 1.35208,0.90964 1.5875,0.91802 0.0728,0.003 -0.16536,-0.22812 -0.52916,-0.51269 z m 6.61458,-0.52917 c 0,-0.14552 -0.12609,-0.26458 -0.2802,-0.26458 -0.15411,0 -0.20661,0.11906 -0.11668,0.26458 0.0899,0.14552 0.21603,0.26458 0.2802,0.26458 0.0642,0 0.11668,-0.11906 0.11668,-0.26458 z m -28.759434,-0.39325 c 0.0287,-0.14353 -0.15619,-0.30109 -0.41085,-0.35013 -0.28961,-0.0558 -0.46302,0.074 -0.46302,0.34651 0,0.46032 0.78192,0.46356 0.87387,0.004 z m 24.526144,0.12867 c 0,-0.14552 -0.29766,-0.26459 -0.66146,-0.26459 -0.3638,0 -0.66146,0.11907 -0.66146,0.26459 0,0.14552 0.29766,0.26458 0.66146,0.26458 0.3638,0 0.66146,-0.11906 0.66146,-0.26458 z m -3.69197,-1.15196 c -0.43214,-0.43215 -1.1503,0.34017 -0.75699,0.81408 0.27744,0.33429 0.36611,0.3227 0.66571,-0.087 0.22117,-0.30246 0.25404,-0.5643 0.0913,-0.72705 z m 7.22398,0.76356 c 0.18659,-0.48627 -0.30948,-0.8233 -0.67451,-0.45827 -0.28242,0.28242 -0.0793,0.84667 0.3048,0.84667 0.12137,0 0.28773,-0.17478 0.36971,-0.3884 z m 1.49507,-0.27306 c -0.36394,-0.43852 -1.05833,-0.53739 -1.05833,-0.15069 0,0.1354 0.26789,0.29777 0.59531,0.36084 0.32742,0.0631 0.63966,0.13088 0.69385,0.15069 0.0542,0.0198 -0.0497,-0.14256 -0.23083,-0.36084 z m -30.849084,-0.0661 c 0.10746,-0.10914 0.57379,-0.33343 1.03629,-0.49843 l 0.84091,-0.29999 -0.74483,-0.29532 c -0.40966,-0.16243 -0.96818,-0.29532 -1.24116,-0.29532 -0.27298,0 -0.56991,-0.11906 -0.65985,-0.26458 -0.0899,-0.14552 -0.39623,-0.26459 -0.68066,-0.26459 -0.28443,0 -0.74824,-0.14432 -1.03069,-0.32071 -0.69054,-0.43125 -0.7943,-0.26044 -0.62201,1.02406 0.1459,1.08773 0.14837,1.0898 1.13934,0.95689 0.58551,-0.0785 1.06791,-0.0122 1.17534,0.16161 0.21142,0.34209 0.50948,0.37858 0.78732,0.0964 z m 20.265754,-0.0661 c 0,-0.14552 -0.11907,-0.26459 -0.26459,-0.26459 -0.14552,0 -0.26458,0.11907 -0.26458,0.26459 0,0.14552 0.11906,0.26458 0.26458,0.26458 0.14552,0 0.26459,-0.11906 0.26459,-0.26458 z m 3.57187,-0.26459 c 0.0899,-0.14552 -0.0291,-0.26458 -0.26458,-0.26458 -0.23546,0 -0.35452,0.11906 -0.26459,0.26458 0.0899,0.14552 0.209,0.26459 0.26459,0.26459 0.0556,0 0.17464,-0.11907 0.26458,-0.26459 z m 3.46485,-0.0409 c 0.11268,-0.18231 0.073,-0.23391 -0.0984,-0.12797 -0.45617,0.28193 -0.62421,-0.26575 -0.19168,-0.62472 0.31508,-0.26148 0.42246,-0.24194 0.55398,0.1008 0.25137,0.65505 0.65979,0.21477 0.47686,-0.51407 -0.12138,-0.48361 -0.0553,-0.64524 0.26361,-0.64524 0.23406,0 0.42556,0.12898 0.42556,0.28663 0,0.5456 0.62,0.0777 0.66256,-0.50005 0.0602,-0.8172 0.38882,-1.05615 0.69646,-0.50642 0.14355,0.25652 0.38546,0.38947 0.53757,0.29546 0.18401,-0.11372 0.16722,-0.23852 -0.0502,-0.37286 -0.53442,-0.33029 7.9e-4,-0.84885 0.69597,-0.67437 0.54261,0.13619 0.63259,0.0633 0.63259,-0.51276 0,-0.57389 0.091,-0.64872 0.62546,-0.51456 0.49552,0.12436 0.66413,0.0292 0.81156,-0.45798 0.11208,-0.37037 0.24062,-0.48277 0.32318,-0.28259 0.23795,0.57695 0.62105,0.0684 0.62105,-0.82441 0,-0.85013 -0.51402,-2.28005 -0.82105,-2.28403 -0.0878,-0.001 -0.1024,0.59325 -0.0325,1.32086 0.0846,0.88028 0.0273,1.32291 -0.17113,1.32291 -0.16403,0 -0.29824,-0.18021 -0.29824,-0.40046 0,-1.05669 -0.56593,-1.42553 -1.50219,-0.97906 -0.94345,0.4499 -1.1,0.86679 -0.5095,1.35685 0.42042,0.34893 0.24795,1.41827 -0.20481,1.26986 -0.16338,-0.0536 -0.33472,-0.41561 -0.38076,-0.80457 -0.0503,-0.4246 -0.24676,-0.7072 -0.49171,-0.7072 -0.30172,0 -0.36606,0.17228 -0.24701,0.66146 0.0885,0.3638 0.23341,0.95911 0.32195,1.32292 0.1186,0.48733 0.0545,0.66145 -0.24356,0.66145 -0.24218,0 -0.47856,-0.34511 -0.58896,-0.85989 -0.38806,-1.80932 -0.95828,-1.58446 -0.61683,0.24323 0.16873,0.90317 0.14489,1.29952 -0.0868,1.44268 -0.47482,0.29346 -0.78511,-0.007 -0.60217,-0.5837 0.0885,-0.27879 0.0503,-0.5069 -0.0848,-0.5069 -0.13515,0 -0.18635,-0.3106 -0.11378,-0.69022 0.11905,-0.62279 0.08,-0.6624 -0.40012,-0.40546 -0.50805,0.2719 -0.514,0.33963 -0.13194,1.50018 0.27985,0.85003 0.31649,1.29908 0.12191,1.49366 -0.35247,0.35247 -0.8737,0.0498 -0.69886,-0.4058 0.17303,-0.4509 -0.33042,-1.75694 -0.67727,-1.75694 -0.34105,0 -0.35679,1.1312 -0.0204,1.46843 0.13789,0.13825 0.308,0.72761 0.37801,1.30969 0.07,0.58209 0.1358,1.0881 0.14617,1.12448 0.0583,0.20456 0.81051,0.019 0.97017,-0.23932 z m 4.33381,-5.4003 c -0.34867,-0.91708 -0.32508,-1.1734 0.10798,-1.1734 0.34015,0 0.6803,0.75139 0.68871,1.52135 0.006,0.58627 -0.53068,0.35169 -0.79669,-0.34795 z m -28.833044,5.1766 c 0,-0.14552 -0.12609,-0.26458 -0.2802,-0.26458 -0.15411,0 -0.20661,0.11906 -0.11668,0.26458 0.0899,0.14552 0.21603,0.26458 0.2802,0.26458 0.0642,0 0.11668,-0.11906 0.11668,-0.26458 z m 8.995844,-0.91043 c 0,-0.0642 -0.11906,-0.19026 -0.26458,-0.28019 -0.14553,-0.0899 -0.26459,-0.0374 -0.26459,0.11667 0,0.15411 0.11906,0.2802 0.26459,0.2802 0.14552,0 0.26458,-0.0525 0.26458,-0.11668 z m -2.45291,-0.30776 c -0.0879,-0.0879 -0.31612,-0.0973 -0.50712,-0.0209 -0.21106,0.0845 -0.14837,0.14715 0.15986,0.15985 0.27891,0.0115 0.43518,-0.0511 0.34726,-0.13897 z m 4.30499,-0.26533 c 0,-0.0572 -0.17859,-0.10398 -0.39687,-0.10398 -0.21828,0 -0.39688,0.11533 -0.39688,0.25628 0,0.14095 0.1786,0.18775 0.39688,0.10399 0.21828,-0.0838 0.39687,-0.19909 0.39687,-0.25629 z m 1.38906,-0.0146 c -0.1819,-0.0734 -0.47955,-0.0734 -0.66145,0 -0.1819,0.0734 -0.0331,0.13346 0.33073,0.13346 0.3638,0 0.51263,-0.0601 0.33072,-0.13346 z m -25.069274,-0.35393 c -0.0899,-0.14552 -0.28259,-0.26459 -0.42811,-0.26459 -0.14552,0 -0.191,0.11907 -0.10106,0.26459 0.0899,0.14552 0.28258,0.26458 0.4281,0.26458 0.14552,0 0.191,-0.11906 0.10107,-0.26458 z m 48.286464,-0.23845 c 0,-0.29601 -0.38748,-0.73166 -0.94152,-1.05855 -0.51784,-0.30553 -0.868,-0.67448 -0.77814,-0.81988 0.23421,-0.37896 -0.21165,-0.32595 -0.78507,0.0933 -0.46204,0.33786 -0.45114,0.36726 0.19645,0.5298 0.37711,0.0946 0.93979,0.52899 1.2504,0.9652 0.64628,0.90762 1.05788,1.02049 1.05788,0.29009 z m -2.11666,-0.0111 c 0,-0.36003 -1.09412,-1.07333 -1.64638,-1.07333 -0.71976,0 -0.55165,0.35046 0.39533,0.8241 1.05428,0.5273 1.25105,0.5665 1.25105,0.24924 z M 108.864,142.55853 c 0.0924,-0.24081 -0.12503,-0.35865 -0.69929,-0.37898 -4.65905,-0.16497 -5.20127,-0.21865 -5.31945,-0.52662 -0.21913,-0.57105 -0.71447,-0.36289 -0.62559,0.26289 0.0566,0.39856 0.23822,0.56947 0.54953,0.51712 0.25574,-0.043 0.67246,0.0427 0.92605,0.19039 0.71449,0.41622 5.00481,0.36244 5.16875,-0.0648 z m 8.58737,-0.97343 c 0.47359,-1.77297 -0.12903,-2.14939 -0.85691,-0.53525 -0.39319,0.87194 -0.4156,1.12323 -0.13077,1.46642 0.42075,0.50698 0.66504,0.27666 0.98768,-0.93117 z m 2.46718,0.59534 c 0.83194,0.0943 0.90704,-0.43484 0.12139,-0.8553 -0.58209,-0.31153 -0.73121,-0.29591 -1.19669,0.12534 -0.71297,0.64523 -0.72729,1.31623 -0.02,0.9377 0.28145,-0.15062 0.77434,-0.24411 1.09532,-0.20774 z m -27.271634,-0.71202 c 0,-0.0642 -0.11906,-0.19026 -0.26458,-0.2802 -0.14552,-0.0899 -0.26458,-0.0374 -0.26458,0.11668 0,0.15411 0.11906,0.2802 0.26458,0.2802 0.14552,0 0.26458,-0.0525 0.26458,-0.11668 z m -7.40833,-0.54478 c 0,-0.21828 -0.11906,-0.39688 -0.26459,-0.39688 -0.14552,0 -0.26458,0.1786 -0.26458,0.39688 0,0.21828 0.11906,0.39687 0.26458,0.39687 0.14553,0 0.26459,-0.17859 0.26459,-0.39687 z m 8.20949,-0.77428 c -0.1496,-0.39346 -0.27199,-1.01231 -0.27199,-1.37523 0,-0.37252 -0.11521,-0.58864 -0.26458,-0.49632 -0.40521,0.25042 -0.31487,1.39707 0.16813,2.13423 0.53879,0.82229 0.7293,0.68647 0.36844,-0.26268 z m 9.385304,0.11282 c 0.0931,-0.15065 -0.13475,-0.26458 -0.52917,-0.26458 -0.39441,0 -0.62227,0.11393 -0.52916,0.26458 0.0899,0.14552 0.32806,0.26458 0.52916,0.26458 0.20111,0 0.43923,-0.11906 0.52917,-0.26458 z m 3.3073,0 c 0,-0.14552 -0.11906,-0.26458 -0.26459,-0.26458 -0.14552,0 -0.26458,0.11906 -0.26458,0.26458 0,0.14552 0.11906,0.26458 0.26458,0.26458 0.14553,0 0.26459,-0.11906 0.26459,-0.26458 z m 16.13958,-1.59168 c 0,-0.51163 -0.40638,-0.23917 -0.99218,0.6652 -0.32743,0.50548 -0.59183,1.01003 -0.58756,1.12121 0.0113,0.29531 1.57974,-1.47828 1.57974,-1.78641 z m 9.26042,0.0548 c 0,-0.40875 -0.17481,-0.9743 -0.38846,-1.25677 -0.42567,-0.56278 -0.6101,0.6292 -0.24469,1.58143 0.25854,0.67375 0.63315,0.48165 0.63315,-0.32466 z m -28.73281,-0.21194 c 0.0943,-0.24567 -0.0922,-0.47609 -0.51549,-0.63703 -0.81455,-0.30969 -1.04582,-0.84269 -0.6702,-1.54456 0.23575,-0.44049 0.19347,-0.56105 -0.24563,-0.70041 -0.79762,-0.25316 -2.115044,-1.44567 -2.115044,-1.91451 0,-0.22702 -0.41124,-0.81216 -0.91385,-1.3003 -0.85424,-0.82962 -1.46251,-2.22442 -1.46593,-3.36142 -0.001,-0.33907 -0.13117,-0.44156 -0.41999,-0.33073 -0.23018,0.0883 -0.59839,0.1606 -0.81823,0.1606 -0.3274,0 -0.37294,0.27528 -0.25169,1.52135 0.0814,0.83675 0.15068,1.84095 0.1539,2.23157 0.003,0.39061 0.11389,0.77697 0.24593,0.85857 0.13203,0.0816 0.49424,0.63604 0.80492,1.23208 1.33762,2.56629 5.666654,5.20413 6.211304,3.78479 z m 1.82089,0.1571 c -0.17174,-0.65677 -0.51007,-0.89229 -0.7422,-0.51669 -0.25111,0.40629 0.0562,1.04998 0.50125,1.04998 0.25113,0 0.33302,-0.18124 0.24095,-0.53329 z m 14.98302,-0.78963 c -0.01,-0.26169 -0.092,-0.21662 -0.24193,0.13229 -0.31256,0.72737 -0.31256,1.14511 0,0.66146 0.14106,-0.21828 0.24993,-0.57547 0.24193,-0.79375 z m -0.74641,-1.1764 c 0.14709,-0.15479 0.38658,-0.0538 0.62736,0.26458 0.44598,0.58969 0.61822,-1.51943 0.18044,-2.20956 -0.42111,-0.66385 -1.75593,1.95657 -1.42483,2.79713 0.16037,0.40713 0.19061,0.39927 0.27947,-0.0726 0.0548,-0.29105 0.20671,-0.64183 0.33756,-0.77953 z m 9.14914,-0.0561 c 0.60722,-0.48734 1.33632,-0.97494 1.62022,-1.08355 0.71579,-0.27383 0.32434,-1.40929 -0.41885,-1.21494 -0.69039,0.18054 -2.85841,2.29395 -3.03125,2.95489 -0.18634,0.71257 0.37512,0.51116 1.82988,-0.6564 z m -3.61758,0.27525 c 0,-0.21828 -0.11906,-0.32329 -0.26458,-0.23336 -0.14552,0.0899 -0.26459,0.34212 -0.26459,0.5604 0,0.21828 0.11907,0.32329 0.26459,0.23336 0.14552,-0.0899 0.26458,-0.34212 0.26458,-0.5604 z m -15.875,0.0595 c 0,-0.0572 -0.1786,-0.17252 -0.39688,-0.25628 -0.21828,-0.0838 -0.39687,-0.037 -0.39687,0.10398 0,0.14095 0.17859,0.25628 0.39687,0.25628 0.21828,0 0.39688,-0.0468 0.39688,-0.10398 z m -27.373504,-0.67217 c -0.0959,-0.1552 -0.30102,-0.28218 -0.45577,-0.28218 -0.17544,0 -0.15537,0.15181 0.0533,0.40327 0.36289,0.43725 0.68721,0.33967 0.40245,-0.12109 z m 40.867254,0.24698 c 0,-0.14552 -0.0525,-0.26458 -0.11668,-0.26458 -0.0642,0 -0.19026,0.11906 -0.2802,0.26458 -0.0899,0.14552 -0.0374,0.26459 0.11668,0.26459 0.15411,0 0.2802,-0.11907 0.2802,-0.26459 z m -10.18646,-0.26458 c -0.0899,-0.14552 -0.27556,-0.26458 -0.41249,-0.26458 -0.13693,0 -0.24897,0.11906 -0.24897,0.26458 0,0.14552 0.18562,0.26458 0.41249,0.26458 0.22687,0 0.33891,-0.11906 0.24897,-0.26458 z M 91.579996,135.4835 c -0.39858,-0.74475 -0.79101,-0.631 -0.43387,0.12577 0.16582,0.35138 0.39307,0.58228 0.50499,0.51311 0.11192,-0.0692 0.0799,-0.35667 -0.0711,-0.63888 z m 12.444014,0.0161 c 0,-0.14552 -0.11906,-0.26458 -0.26458,-0.26458 -0.14552,0 -0.26459,0.11906 -0.26459,0.26458 0,0.14552 0.11907,0.26458 0.26459,0.26458 0.14552,0 0.26458,-0.11906 0.26458,-0.26458 z m 5.6669,0.10398 c 0.23019,-0.0883 0.41852,-0.3959 0.41852,-0.6835 0,-0.32416 -0.1257,-0.46431 -0.33073,-0.36874 -0.1819,0.0848 -0.53909,0.22766 -0.79375,0.31749 -0.25466,0.0898 -0.46302,0.32803 -0.46302,0.52934 0,0.38771 0.47596,0.47135 1.16898,0.20541 z m 13.11852,-0.25189 c 0,-0.22687 -0.11906,-0.3389 -0.26458,-0.24897 -0.14552,0.0899 -0.26459,0.27556 -0.26459,0.4125 0,0.13693 0.11907,0.24896 0.26459,0.24896 0.14552,0 0.26458,-0.18562 0.26458,-0.41249 z m -43.920844,-0.39687 c 0,-0.13693 -0.17859,-0.24897 -0.39687,-0.24897 -0.40916,0 -0.52565,0.3122 -0.22768,0.61017 0.21138,0.21138 0.62455,-0.0276 0.62455,-0.3612 z m 28.839594,0.4281 c 0,-0.27926 -0.50777,-0.39658 -0.65879,-0.15222 -0.0914,0.1479 0.0194,0.2689 0.2463,0.2689 0.22687,0 0.41249,-0.0525 0.41249,-0.11668 z m -1.97276,-9.43121 c -0.0891,-8.44109 -0.1249,-8.91486 -0.6487,-8.59113 -0.27931,0.17262 -0.14345,16.67397 0.14107,17.13434 0.48004,0.77671 0.58703,-1.02386 0.50763,-8.54321 z m -1.64621,7.12577 c -0.0259,-0.63237 -0.0704,-4.45874 -0.099,-8.50305 -0.0375,-5.31351 -0.13451,-7.32543 -0.34978,-7.25285 -0.27122,0.0914 -0.37888,5.33122 -0.1805,8.78531 0.0334,0.58208 0.0533,2.59241 0.0442,4.4674 -0.009,1.87498 0.0483,3.51404 0.12763,3.64233 0.29795,0.4821 0.50289,-0.0283 0.45739,-1.13914 z m 3.35077,0.76847 c -0.008,-0.70724 -0.33252,-1.50836 -0.55563,-1.37047 -0.41206,0.25467 -0.27399,1.7012 0.16237,1.7012 0.21828,0 0.39525,-0.14882 0.39326,-0.33073 z m 4.1708,-0.17539 c 0.47295,-0.18666 0.8599,-0.51008 0.8599,-0.71869 0,-0.20861 0.17859,-0.44783 0.39687,-0.53159 0.37916,-0.1455 0.58761,-1.68318 0.22817,-1.68318 -0.0928,0 -0.52466,0.41672 -0.95971,0.92604 -0.43505,0.50932 -0.95444,0.92604 -1.15421,0.92604 -0.19976,0 -0.3632,0.16886 -0.3632,0.37524 0,0.20638 -0.0785,0.57981 -0.17446,0.82985 -0.096,0.25004 -0.0662,0.40086 0.0661,0.33515 0.13233,-0.0657 0.62755,-0.27219 1.10049,-0.45886 z m 3.90261,0.24154 c 0.0899,-0.14552 0.0445,-0.26458 -0.10107,-0.26458 -0.14552,0 -0.33816,0.11906 -0.4281,0.26458 -0.0899,0.14552 -0.0445,0.26458 0.10106,0.26458 0.14552,0 0.33817,-0.11906 0.42811,-0.26458 z m 5.95312,-0.14791 c 0,-0.22687 -0.11906,-0.3389 -0.26458,-0.24897 -0.14552,0.0899 -0.26458,0.27556 -0.26458,0.4125 0,0.13693 0.11906,0.24896 0.26458,0.24896 0.14552,0 0.26458,-0.18562 0.26458,-0.41249 z m -18.95136,-1.50588 c -0.0185,-0.76391 -0.0674,-4.18689 -0.10867,-7.60663 -0.0412,-3.41974 -0.1647,-6.51536 -0.27433,-6.87916 -0.10963,-0.36381 -0.21112,-0.5424 -0.22554,-0.39688 -0.0231,0.23309 -0.92095,4.52046 -1.20535,5.75568 -0.0588,0.25521 -0.17506,0.57441 -0.25844,0.70932 -0.0834,0.13492 -0.0249,0.32363 0.12998,0.41935 0.47846,0.2957 -10e-4,2.56697 -0.700724,3.31659 -1.14641,1.22888 -0.48167,3.96343 1.278054,5.25755 1.42386,1.04711 1.40454,1.05527 1.36502,-0.57582 z m 7.04511,-0.2276 c 0,-0.27492 0.14883,-0.51359 0.33073,-0.53038 0.1819,-0.0168 0.49482,-0.0465 0.69537,-0.0661 1.23158,-0.12032 1.67855,-3.55858 0.5712,-4.39385 -0.44733,-0.33743 -0.55662,-0.71844 -0.5731,-1.9981 -0.0112,-0.86965 -0.18699,-1.95698 -0.39065,-2.41631 -0.20366,-0.45933 -0.42906,-1.62736 -0.50088,-2.59562 -0.21836,-2.94382 -0.60801,-3.67592 -1.42959,-2.68598 -0.35208,0.42422 -0.24927,15.4633 0.10968,16.04408 0.27076,0.4381 1.18724,-0.60997 1.18724,-1.35769 z m 21.96042,1.35222 c 0,-0.14552 -0.0525,-0.26458 -0.11668,-0.26458 -0.0642,0 -0.19026,0.11906 -0.2802,0.26458 -0.0899,0.14552 -0.0374,0.26459 0.11668,0.26459 0.15411,0 0.2802,-0.11907 0.2802,-0.26459 z m -15.20056,-1.44518 c 0.56803,-1.19705 0.34959,-1.84915 -0.23015,-0.68703 -0.42594,0.85382 -0.57757,1.60305 -0.32441,1.60305 0.0659,0 0.31548,-0.41221 0.55456,-0.91602 z m -9.16556,-1.1345 c -0.0205,-0.54571 -0.0294,-2.12329 -0.0198,-3.50573 0.0191,-2.74898 -0.14683,-8.70589 -0.25421,-9.12813 -0.037,-0.14552 -0.13382,1.28323 -0.21514,3.175 -0.18981,4.41552 -0.0246,10.45104 0.28606,10.45104 0.13218,0 0.22357,-0.44648 0.20309,-0.99218 z m 22.51404,-0.47864 c 0,-0.22687 -0.11907,-0.33891 -0.26459,-0.24897 -0.14552,0.0899 -0.26458,0.27556 -0.26458,0.41249 0,0.13693 0.11906,0.24897 0.26458,0.24897 0.14552,0 0.26459,-0.18562 0.26459,-0.41249 z m -15.72968,-1.34957 c -0.10798,-0.43024 -0.0414,-0.61919 0.2182,-0.61919 0.43555,0 0.8084,-0.79303 0.50504,-1.0742 -0.86548,-0.80218 -1.89897,0.0848 -1.89161,1.62346 l 0.007,1.55162 0.65817,-0.43125 c 0.49759,-0.32604 0.62026,-0.58233 0.50277,-1.05044 z m -24.130434,-1.08221 c 0.0876,-0.47294 0.11154,-0.8599 0.0531,-0.8599 -0.19097,0 -0.9388,1.65826 -0.9388,2.08172 0,0.72581 0.705,-0.24672 0.88573,-1.22182 z m 1.64268,-0.80093 c -0.22082,-0.22082 -0.67616,0.24567 -0.66791,0.68425 0.007,0.39282 0.0555,0.3852 0.39414,-0.0624 0.21215,-0.28042 0.33534,-0.56024 0.27377,-0.62181 z m -4.89908,-0.28667 c -0.11939,-0.41628 -0.37636,-1.04136 -0.57103,-1.38906 -0.55587,-0.99281 -0.66028,0.27066 -0.11027,1.33427 0.53203,1.02885 0.97077,1.06413 0.6813,0.0548 z m 29.755054,0.49229 c 0.0899,-0.14552 -0.0816,-0.26459 -0.38126,-0.26459 -0.29963,0 -0.54478,0.11907 -0.54478,0.26459 0,0.14552 0.17156,0.26458 0.38125,0.26458 0.2097,0 0.45485,-0.11906 0.54479,-0.26458 z m -26.061474,-0.79375 c 0,-0.14552 -0.12608,-0.26459 -0.28019,-0.26459 -0.15411,0 -0.20662,0.11907 -0.11668,0.26459 0.0899,0.14552 0.21603,0.26458 0.2802,0.26458 0.0642,0 0.11667,-0.11906 0.11667,-0.26458 z m 7.86585,0.10473 c -0.0879,-0.0879 -0.31613,-0.0973 -0.50712,-0.0209 -0.21107,0.0845 -0.14837,0.14716 0.15985,0.15985 0.27892,0.0115 0.43519,-0.051 0.34727,-0.13896 z m 14.816674,-0.52917 c -0.0879,-0.0879 -0.31613,-0.0973 -0.50712,-0.0209 -0.21107,0.0845 -0.14837,0.14716 0.15985,0.15985 0.27892,0.0115 0.43519,-0.051 0.34727,-0.13896 z m -13.157514,-0.89848 c 0,-0.3315 -0.28079,-0.3315 -0.79375,0 -0.32093,0.2074 -0.28296,0.25725 0.19843,0.26053 0.32742,0.002 0.59532,-0.11501 0.59532,-0.26053 z m 13.758334,-0.52917 c 0,-0.31054 -0.20336,-0.31054 -0.92604,0 -0.46891,0.2015 -0.44631,0.22951 0.19844,0.24599 0.40018,0.0102 0.7276,-0.10047 0.7276,-0.24599 z m -15.428624,-1.25677 c 1.84983,-4.32822 2.495424,-7.9323 1.54534,-8.62702 -0.39742,-0.2906 -0.41637,-0.42269 -0.12708,-0.88591 0.29311,-0.46934 0.2568,-0.64905 -0.26337,-1.30349 l -0.60335,-0.7591 0.11817,1.19063 c 0.23966,2.41457 -0.75372,8.0743 -1.75808,10.0165 -0.53827,1.04091 -0.52919,1.096 0.18053,1.096 0.39935,0 0.69977,-0.24078 0.90784,-0.72761 z m 1.40922,-0.0746 c 0.45479,-1.09796 0.15293,-1.28577 -0.37279,-0.23194 -0.49283,0.98791 -0.50142,1.03418 -0.19199,1.03418 0.12786,0 0.38201,-0.36101 0.56478,-0.80224 z m 25.454194,-1.3461 c -0.4343,-0.96509 -0.55559,-1.07704 -0.72505,-0.66923 -0.11712,0.28183 -0.0851,0.56288 0.0753,0.66206 0.15337,0.0948 0.36782,0.64656 0.47655,1.22616 0.17519,0.93383 0.226,0.99041 0.44621,0.4969 0.18063,-0.40481 0.10605,-0.87347 -0.27305,-1.71589 z m 1.79438,1.61917 c 0,-0.14552 -0.0525,-0.26458 -0.11668,-0.26458 -0.0642,0 -0.19026,0.11906 -0.2802,0.26458 -0.0899,0.14552 -0.0374,0.26458 0.11668,0.26458 0.15411,0 0.2802,-0.11906 0.2802,-0.26458 z m -13.22917,-0.39688 c 0,-0.24343 -0.24752,-0.39687 -0.64019,-0.39687 -0.8656,0 -1.55297,-2.02402 -1.6623,-4.89479 -0.0443,-1.16417 -0.11202,-2.59292 -0.15042,-3.175 -0.0392,-0.59413 0.0866,-1.25186 0.28678,-1.49954 0.19611,-0.24266 0.31383,-0.71891 0.2616,-1.05833 -0.12163,-0.79028 -0.8921,0.49962 -1.14045,1.90929 -0.0842,0.47775 -0.22808,0.99007 -0.31982,1.1385 -0.4745,0.76777 0.0374,4.79048 0.84673,6.65383 0.18961,0.43656 0.41329,1.00211 0.49707,1.25677 0.19981,0.6074 2.021,0.66701 2.021,0.0661 z m -6.61458,-5.82083 c 0,-0.21828 -0.11533,-0.39687 -0.25628,-0.39687 -0.14095,0 -0.18775,0.17859 -0.10399,0.39687 0.0838,0.21828 0.19909,0.39688 0.25628,0.39688 0.0572,0 0.10399,-0.1786 0.10399,-0.39688 z m -2.91042,-1.19062 c 0.34203,-0.22104 0.33504,-0.25704 -0.0505,-0.26054 -0.24607,-0.002 -0.52099,0.11501 -0.61093,0.26054 -0.20695,0.33485 0.14331,0.33485 0.66146,0 z m 2.64584,0 c 0,-0.14553 -0.0525,-0.26459 -0.11668,-0.26459 -0.0642,0 -0.19026,0.11906 -0.2802,0.26459 -0.0899,0.14552 -0.0374,0.26458 0.11668,0.26458 0.15411,0 0.2802,-0.11906 0.2802,-0.26458 z m 16.93333,-1.05834 c 0.20121,-0.37597 0.20121,-0.68236 0,-1.05833 -0.3518,-0.65734 -0.92952,-0.71578 -0.65397,-0.0662 0.10803,0.25466 0.18163,0.73091 0.16357,1.05834 -0.0406,0.73588 0.12035,0.75759 0.4904,0.0661 z m -31.220844,0 c 0,-0.14552 -0.0525,-0.26458 -0.11667,-0.26458 -0.0642,0 -0.19027,0.11906 -0.2802,0.26458 -0.0899,0.14552 -0.0374,0.26459 0.11667,0.26459 0.15411,0 0.2802,-0.11907 0.2802,-0.26459 z m 15.028944,-1.54215 c 0.064,-1.09467 -0.002,-1.36826 -0.33073,-1.36826 -0.32218,0 -0.4107,0.31842 -0.4107,1.47725 0,1.94291 0.62688,1.85075 0.74143,-0.10899 z m -1.73569,0.68226 c 0.18927,-0.51868 -0.0947,-2.31511 -0.36591,-2.31511 -0.40015,0 -0.56143,0.73716 -0.37671,1.72179 0.17458,0.93056 0.5191,1.20582 0.74262,0.59332 z m -17.747514,47.44233 c -1.091,-0.18036 -1.61817,-0.58215 -1.6271,-1.24014 -0.002,-0.16409 -0.18265,-0.44655 -0.40093,-0.62771 -0.64079,-0.53181 -0.48292,-1.90197 0.33073,-2.87032 0.62688,-0.74608 1.05155,-0.97822 1.9724,-1.07819 0.37874,-0.0411 0.0691,-2.92402 -0.36898,-3.43568 -0.24086,-0.2813 -0.558,-0.73582 -0.70477,-1.01006 -0.14676,-0.27423 -0.66201,-0.69149 -1.14499,-0.92723 -0.48297,-0.23575 -1.81123,-0.8766 -2.95168,-1.42412 -1.52376,-0.73154 -2.3289,-1.31553 -3.03663,-2.20255 -0.5297,-0.66388 -1.60414,-1.87919 -2.38766,-2.70067 -2.65626,-2.78499 -2.98741,-3.80796 -1.6618,-5.13357 0.64849,-0.64848 0.72064,-0.85358 0.48343,-1.37419 -0.20531,-0.45061 -0.19234,-0.69725 0.0492,-0.9355 0.32116,-0.31677 6.37802,5.55647 6.37802,6.18467 0,0.13126 0.18154,0.23866 0.40343,0.23866 0.22188,0 0.52131,0.26789 0.66538,0.59531 0.14408,0.32742 0.49706,0.9525 0.7844,1.38906 0.28733,0.43656 0.65506,1.09141 0.81717,1.45521 1.38193,3.10124 3.51979,5.8914 5.00254,6.52889 0.3638,0.15641 0.99638,0.41914 1.40573,0.58384 0.62514,0.25152 0.73102,0.43135 0.66146,1.12352 -0.0593,0.58965 0.0609,0.90898 0.42249,1.12256 1.91697,1.13235 2.42732,2.37288 1.77353,4.311 l -0.52074,1.54373 -2.59884,0.0365 c -1.42936,0.0201 -3.11497,-0.0488 -3.74581,-0.15306 z m 3.35645,-1.89379 c 0.94954,-0.33101 1.0933,-1.00732 0.31717,-1.49203 -0.28384,-0.17725 -0.59475,-0.74167 -0.69091,-1.25426 -0.23941,-1.27616 -0.70231,-1.17237 -1.92555,0.43177 l -1.03993,1.36377 0.66965,0.62061 c 0.73883,0.68472 1.41319,0.76812 2.66957,0.33014 z m -6.91135,-12.3048 c -0.0879,-0.0879 -0.31612,-0.0973 -0.50711,-0.0209 -0.21107,0.0845 -0.14838,0.14715 0.15985,0.15985 0.27891,0.0115 0.43518,-0.051 0.34726,-0.13897 z m -0.45751,-1.31097 c 0,-0.22687 -0.11906,-0.3389 -0.26458,-0.24897 -0.14552,0.0899 -0.26458,0.27556 -0.26458,0.41249 0,0.13694 0.11906,0.24897 0.26458,0.24897 0.14552,0 0.26458,-0.18562 0.26458,-0.41249 z m -1.32291,-1.70418 c 0,-0.14552 -0.1786,-0.26458 -0.39688,-0.26458 -0.21828,0 -0.39687,0.11906 -0.39687,0.26458 0,0.14552 0.17859,0.26459 0.39687,0.26459 0.21828,0 0.39688,-0.11907 0.39688,-0.26459 z m 55.236034,21.69083 c -0.39785,-0.43381 -0.79413,-0.78874 -0.88064,-0.78874 -0.0865,0 -0.59444,-0.4544 -1.12873,-1.00978 -0.5343,-0.55539 -1.29887,-1.22392 -1.69905,-1.48564 -0.95674,-0.62571 -0.91627,-1.13288 0.18621,-2.33323 1.29394,-1.4088 4.0895,-1.04859 4.10676,0.52917 0.005,0.42793 0.16407,0.59531 0.56689,0.59531 0.30821,0 0.9672,0.35719 1.46442,0.79375 0.49721,0.43656 1.07848,0.79375 1.2917,0.79375 0.5488,0 0.48064,0.6276 -0.128,1.1784 -0.49723,0.44999 -0.55824,0.43177 -1.70743,-0.50991 -0.86183,-0.7062 -1.34171,-0.92899 -1.7333,-0.8047 -0.85697,0.27199 -0.63782,0.87299 0.6491,1.7801 1.23924,0.87349 1.40719,1.20872 0.87313,1.74278 -0.51116,0.51116 -1.08763,0.36208 -1.86106,-0.48126 z m -0.75969,-3.53333 c 0.6646,-0.8008 -0.49314,-1.89828 -1.68653,-1.59876 -0.85501,0.2146 -0.84121,0.51113 0.0607,1.30497 0.83799,0.73756 1.20281,0.80349 1.62582,0.29379 z m -65.849374,2.67844 c 0.0128,-1.04428 5.2675,-5.16938 5.75063,-4.51441 0.45877,0.62195 0.43983,0.66736 -0.56332,1.35036 -0.48974,0.33344 -1.64092,1.25617 -2.55817,2.05052 -1.59459,1.38091 -2.63783,1.82276 -2.62914,1.11353 z m -2.603346,-3.36103 c -1.072875,-1.582 -0.937999,-1.98083 1.076376,-3.18284 0.76484,-0.45639 1.86687,-1.17596 2.44896,-1.59902 1.26049,-0.91615 1.98437,-1.00857 1.98437,-0.25335 0,0.34915 -0.31993,0.68601 -0.92604,0.97505 -0.50932,0.24288 -0.92604,0.5234 -0.92604,0.62337 0,0.1 -0.65925,0.58395 -1.46499,1.07548 -1.486455,0.90679 -1.858584,2.0311 -0.87372,2.63978 0.31435,0.19428 0.1231,1.03696 -0.23268,1.02522 -0.1137,-0.004 -0.602512,-0.59041 -1.086236,-1.30369 z m 72.8231,-1.40147 c -0.86043,-0.61846 -2.15974,-1.44113 -2.88734,-1.82815 -1.01024,-0.53735 -1.32292,-0.85003 -1.32292,-1.32291 0,-0.83325 1.03682,-1.00414 1.44662,-0.23843 0.16049,0.29987 0.43643,0.54538 0.61321,0.54557 0.17678,1.9e-4 1.00729,0.47644 1.84557,1.05833 1.82646,1.26785 2.04256,1.28824 2.79964,0.26424 1.31472,-1.77826 1.73535,-0.84444 0.55159,1.22456 -0.9794,1.71181 -1.06599,1.72025 -3.04637,0.29679 z m -75.259052,-3.16768 c -1.218351,-0.48602 -1.75655,-2.6269 -0.851738,-3.3881 0.684525,-0.57588 3.526822,-2.01574 4.371056,-2.2143 1.64188,-0.38617 2.9812,1.5975 2.10608,3.11933 -0.4298,0.7474 -0.90602,1.04821 -4.092296,2.5849 -0.537857,0.25941 -0.645472,0.25226 -1.533102,-0.10183 z m 1.992533,-1.55743 c 1.132332,-0.39386 1.182207,-0.42299 2.359415,-1.37819 1.00966,-0.81925 0.7926,-1.50347 -0.47698,-1.50347 -0.501763,0 -0.951984,0.0893 -1.000491,0.19844 -0.04851,0.10914 -0.660257,0.48633 -1.359444,0.8382 -1.464196,0.73686 -1.976606,1.44008 -1.482846,2.03502 0.178933,0.2156 0.455086,0.34388 0.613673,0.28506 0.158586,-0.0588 0.764589,-0.27259 1.346673,-0.47506 z m 76.332299,-0.22006 c -0.94174,-0.51659 -2.85949,-1.33868 -3.12283,-1.33868 -1.13592,0 -1.43628,-2.48163 -0.43156,-3.56574 1.10632,-1.19374 6.45283,0.38734 6.86516,2.03018 0.49056,1.95452 -1.63051,3.79593 -3.31077,2.87424 z m 2.1718,-1.70286 c 0.26844,-0.41946 0.11563,-0.54945 -2.1594,-1.83689 -1.24992,-0.70732 -3.03259,-0.73459 -3.13075,-0.0479 -0.16279,1.13883 4.66643,2.85939 5.29015,1.88478 z m -83.73872,-2.7855 c -0.682393,-1.1552 -0.575216,-1.75257 0.399098,-2.22444 1.22779,-0.59464 1.721013,-0.13768 0.977872,0.90596 l -0.544008,0.76399 h 0.667026 c 0.668651,0 1.234756,-0.1866 3.205466,-1.0566 1.925421,-0.85 2.778122,-0.88911 2.778122,-0.12741 0,0.47182 -0.14353,0.65484 -0.51355,0.65484 -0.28245,0 -0.587135,0.11907 -0.677072,0.26459 -0.08994,0.14552 -0.402249,0.26458 -0.694027,0.26458 -0.291778,0 -1.181248,0.29766 -1.976601,0.66146 -1.990337,0.9104 -3.039656,0.87941 -3.622326,-0.10697 z m 82.70717,-1.74046 c -3.22511,-1.0735 -3.72898,-1.59714 -3.1921,-3.31737 0.65943,-2.1129 2.38047,-2.23839 6.45485,-0.47066 1.80506,0.78315 1.77581,3.30742 -0.0471,4.06909 -1.1106,0.46404 -0.92957,0.47986 -3.21561,-0.28106 z m 3.07822,-1.43208 c 0.59363,-1.10921 -4.16503,-2.76837 -5.01222,-1.74757 -0.50377,0.607 0.071,1.10939 1.95102,1.70539 2.06906,0.65593 2.72787,0.66501 3.0612,0.0422 z m -86.239311,-6.39357 c 0,-0.25122 -0.178594,-0.5253 -0.396875,-0.60906 -0.440504,-0.16904 -0.549566,-0.96265 -0.132292,-0.96265 0.145521,0 0.264583,-0.29766 0.264583,-0.66146 0,-0.69873 0.479386,-0.86999 0.994203,-0.35517 0.231994,0.23199 0.410165,0.22007 0.734541,-0.0491 0.438842,-0.3642 1.056162,0.0975 0.763498,0.57106 -0.06527,0.10562 0.121178,0.26815 0.414333,0.3612 0.665945,0.21136 0.680424,0.56613 0.03944,0.96643 -0.272086,0.16992 -0.441505,0.50732 -0.377548,0.75189 0.09607,0.36739 -0.09198,0.44366 -1.093933,0.44366 -0.969631,0 -1.209952,-0.0907 -1.209952,-0.45676 z m 84.750011,-2.79451 c -0.0845,-0.22015 -0.0187,-0.53515 0.14612,-0.69999 0.47584,-0.47584 0.35215,-0.72305 -0.36174,-0.72305 -0.8034,0 -0.91485,-0.77702 -0.1405,-0.97952 0.34112,-0.0892 0.50096,-0.33183 0.46302,-0.70284 -0.0492,-0.48087 0.0822,-0.56784 0.8681,-0.57482 1.27822,-0.0114 1.5875,0.12033 1.5875,0.67594 0,0.26335 -0.14883,0.54943 -0.33073,0.63575 -0.1819,0.0863 0.0455,0.10137 0.50524,0.0335 1.08646,-0.16049 1.38443,0.48062 0.49441,1.06378 -0.36581,0.23969 -0.57578,0.57687 -0.49321,0.79204 0.15891,0.41412 -0.0917,0.53148 -1.5786,0.73907 -0.74765,0.10438 -1.04546,0.0377 -1.15961,-0.25981 z m -81.971886,-6.20271 c -0.727604,-0.11399 -1.89858,-0.29244 -2.602168,-0.39656 -1.298202,-0.19213 -1.817249,-0.69664 -1.274786,-1.23911 0.277678,-0.27767 2.184835,-0.10026 5.266016,0.48987 0.815188,0.15614 0.859896,0.12355 0.859896,-0.62668 0,-0.97299 0.581789,-1.56267 1.020372,-1.03421 0.219952,0.26502 0.212827,0.71129 -0.02751,1.72305 -0.362521,1.52613 -0.380013,1.53198 -3.241821,1.08364 z m 77.791936,-2.6215 c -1.16162,-1.87954 -0.24341,-3.75938 1.97995,-4.05354 0.65484,-0.0866 1.94812,-0.32531 2.87395,-0.53039 l 1.68333,-0.37287 0.40411,0.95347 c 0.62173,1.46691 0.58995,2.80554 -0.0666,2.80554 -0.41218,0 -0.54796,-0.20472 -0.61417,-0.92604 -0.11388,-1.24053 -0.38174,-1.45345 -1.311,-1.04212 -0.71639,0.3171 -0.76745,0.43028 -0.65285,1.44702 0.0909,0.80654 0.0209,1.1427 -0.26032,1.25062 -0.63219,0.2426 -0.95371,-0.14586 -1.04455,-1.26208 -0.0813,-0.99883 -0.12794,-1.05031 -0.87763,-0.96868 -1.01383,0.1104 -1.01218,0.10822 -1.18168,1.5574 -0.13911,1.18937 -0.574,1.72179 -0.93254,1.14167 z m -80.305478,-3.68001 c -1.019725,-0.18016 -1.280891,-0.94044 -0.493638,-1.43702 0.4766,-0.30064 2.03872,0.71197 2.066499,1.33956 0.01548,0.34982 -0.102936,0.35716 -1.572861,0.0975 z m 79.285168,-1.21729 c -0.24163,-0.24163 -0.43932,-0.78098 -0.43932,-1.19856 0,-0.41758 -0.11907,-0.83282 -0.26459,-0.92276 -0.5084,-0.31421 -0.25694,-0.69156 0.72761,-1.09192 0.5457,-0.2219 1.46844,-0.62351 2.05052,-0.89245 3.09935,-1.43204 4.0041,-1.61883 4.28576,-0.88483 0.18993,0.49495 -0.76588,1.41392 -1.4708,1.41411 -0.23854,6e-5 -1.32668,0.28174 -2.41809,0.62594 -2.06747,0.65203 -2.39466,1.00596 -1.85763,2.00941 0.44322,0.82817 -0.0183,1.53619 -0.61346,0.94106 z m -74.258084,-0.40153 c -0.509323,-0.27884 -1.164167,-0.51271 -1.455209,-0.51971 -0.291042,-0.007 -0.834758,-0.17219 -1.20826,-0.3671 -0.373501,-0.19491 -0.998579,-0.43457 -1.389062,-0.53258 -0.799578,-0.20068 -0.86244,-0.38762 -0.360962,-1.07343 0.332799,-0.45513 0.428028,-0.44454 2.050521,0.22804 0.935832,0.38793 2.26706,0.8957 2.958284,1.12838 1.022376,0.34414 1.256768,0.53891 1.256768,1.0443 0,0.7669 -0.567943,0.79514 -1.85208,0.0921 z m 1.322916,-2.7681 c -0.509323,-0.19769 -1.632441,-0.7273 -2.495819,-1.17692 -0.863377,-0.44961 -1.718557,-0.81748 -1.900399,-0.81748 -0.401308,0 -0.736203,-0.93842 -0.481797,-1.35006 0.119803,-0.19385 0.721008,-0.2439 1.73687,-0.14461 1.773339,0.17333 2.024295,-0.14153 0.639235,-0.80202 -1.000473,-0.4771 -1.39464,-1.08568 -0.84082,-1.2982 0.605584,-0.23238 6.026554,2.54508 5.925694,3.03606 -0.0724,0.35265 -0.42979,0.41688 -2.06289,0.37077 -2.200263,-0.0621 -2.093951,0.29434 0.38196,1.28071 1.14154,0.45478 1.4461,1.12027 0.55318,1.20875 -0.29105,0.0288 -0.94589,-0.10931 -1.455214,-0.307 z m 71.547368,-1.50153 c -0.10228,-0.16549 0.0629,-0.49292 0.36702,-0.72761 0.71207,-0.54948 0.21519,-1.35276 -0.83677,-1.35276 -2.4783,0 2.28571,-2.30887 5.05594,-2.45035 2.44309,-0.12477 1.83021,1.08309 -1.72565,3.40092 -2.32051,1.51259 -2.56442,1.60892 -2.86054,1.1298 z m 2.92388,-2.52625 c 0.93364,-0.44522 1.34878,-1.10135 0.47199,-0.74599 -0.25466,0.10321 -0.79044,0.3062 -1.19062,0.45107 -0.40018,0.14487 -0.72761,0.37082 -0.72761,0.5021 0,0.35047 0.3957,0.29379 1.44624,-0.20718 z M 70.421916,115.8957 c -1.091403,-0.72132 -2.311041,-1.51686 -2.710303,-1.76787 -0.919675,-0.57818 -0.911306,-0.77644 0.08374,-1.98359 1.01469,-1.231 1.875573,-1.28305 3.307043,-0.19994 0.57163,0.43252 1.17429,0.7897 1.33926,0.79375 0.16497,0.004 0.73771,0.49191 1.27275,1.08414 l 0.9728,1.07678 -0.65114,1.10603 c -0.8582,1.45776 -1.26152,1.44556 -3.61414,-0.1093 z m 2.51355,-0.88405 c 0,-0.59506 -0.21879,-0.8494 -1.16689,-1.35651 -0.64179,-0.34327 -1.29068,-0.74792 -1.44198,-0.89922 -0.42388,-0.42387 -1.75676,-0.34169 -1.75676,0.10832 0,0.59258 3.47771,3.08702 4.10104,2.94154 0.14552,-0.034 0.26459,-0.39133 0.26459,-0.79413 z m 65.038654,1.16498 c -1.84679,-0.72326 -1.3921,-2.14933 1.28385,-4.02653 2.33191,-1.63587 3.19656,-1.84899 4.20114,-1.03552 0.94932,0.76871 0.75626,2.68917 -0.27033,2.68917 -0.66078,0 -0.80219,-0.53167 -0.33354,-1.25408 0.65365,-1.00762 -1.07876,-1.06389 -2.05414,-0.0667 -0.0728,0.0744 -0.58439,0.37223 -1.13695,0.66188 -1.91975,1.00632 -2.21417,2.42717 -0.42896,2.07013 0.72296,-0.14459 1.29133,0.30999 0.86817,0.69435 -0.39657,0.36022 -1.52901,0.50239 -2.12924,0.26733 z m -62.978214,-3.68687 c -0.46748,-0.28503 -1.07905,-0.73107 -1.35903,-0.99119 -0.27998,-0.26012 -1.05835,-0.93421 -1.72971,-1.49798 -1.27608,-1.07157 -1.50317,-1.71842 -0.80634,-2.29674 0.22787,-0.18912 0.58812,-0.67995 0.80054,-1.09073 0.21243,-0.41078 0.50223,-0.74687 0.64401,-0.74687 0.41252,0 0.29723,1.75456 -0.13908,2.11666 -0.55571,0.4612 -0.49832,0.71508 0.27638,1.22269 0.65505,0.4292 0.69526,0.41863 1.4866,-0.39078 1.3553,-1.38623 1.93635,-0.91326 0.89827,0.73117 l -0.66511,1.0536 0.69126,0.54375 c 0.91798,0.72208 1.57278,0.68605 2.09794,-0.11545 0.44842,-0.68437 0.9032,-0.66568 0.9032,0.0371 0,1.38364 -1.80519,2.21359 -3.09893,1.42476 z m 59.841764,-0.0256 c -0.23519,-0.38054 0.50319,-1.15268 2.32541,-2.43172 0.83674,-0.58732 1.52216,-1.13991 1.52316,-1.22796 0.004,-0.32563 1.8316,-1.3935 2.10067,-1.22721 0.52159,0.32236 0.2799,0.63699 -1.94391,2.53055 -2.73768,2.33114 -3.67875,2.88476 -4.00533,2.35634 z m -2.79396,-2.65713 c -1.10023,-1.1778 -0.957,-2.88244 0.24219,-2.88244 0.26406,0 0.33465,0.21003 0.23892,0.71083 -0.19755,1.03344 0.0343,1.40584 0.87523,1.40584 0.76846,0 1.34075,-1.16929 0.9119,-1.86318 -0.78842,-1.27569 0.37273,-3.43524 1.83891,-3.42008 1.32317,0.0137 2.51247,1.43048 2.10097,2.50283 -0.31653,0.82486 -1.1549,0.46295 -1.1549,-0.49856 0,-1.00237 -0.36084,-1.26112 -1.28151,-0.91895 -0.58209,0.21633 -0.6074,0.31546 -0.41342,1.61888 0.38546,2.58999 0.18955,3.11029 -1.42517,3.78497 -1.16666,0.48746 -1.03958,0.51639 -1.93312,-0.44014 z m -55.017304,-2.74828 c -1.08585,-1.23589 -2.06357,-2.24792 -2.17272,-2.24896 -1.0685,-0.0101 0.45145,-2.04988 1.86083,-2.4972 1.53668,-0.48772 3.10442,2.6482 1.88968,3.7799 l -0.54897,0.51145 1.11968,1.04442 c 1.10949,1.03492 1.21589,1.65747 0.28328,1.65747 -0.25163,0 -1.34593,-1.01119 -2.43178,-2.24708 z m 1.01329,-2.13094 c 0.12561,-0.87293 -1.16211,-1.92646 -1.69876,-1.38981 -0.38371,0.38371 -0.36693,0.49196 0.19386,1.25046 0.67393,0.91155 1.38432,0.97733 1.5049,0.13935 z m -7.81375,1.95954 c -0.3907,-0.3907 0.0407,-1.28569 0.61973,-1.28569 0.28363,0 0.38003,0.21211 0.32142,0.7072 -0.0945,0.7982 -0.48278,1.03687 -0.94115,0.57849 z m 57.512954,-0.61526 c -1.03506,-0.95926 -0.94619,-2.17342 0.26511,-3.62196 0.52868,-0.63223 1.08357,-1.4174 1.23309,-1.74482 0.14952,-0.32742 0.3718,-0.59531 0.49397,-0.59531 0.12216,0 0.22211,-0.15949 0.22211,-0.354415 0,-0.19492 0.29766,-0.49003 0.66146,-0.65579 0.83335,-0.3797 0.98298,0.751505 0.17538,1.325925 -0.26734,0.19015 -0.65429,0.65991 -0.85989,1.04391 -0.20561,0.38399 -0.71342,1.24866 -1.12848,1.92149 -1.3868,2.24803 -0.0546,2.87129 1.52831,0.715 0.52306,-0.71255 1.12852,-1.36366 1.34545,-1.44691 0.21694,-0.0832 0.39709,-0.30392 0.40032,-0.49039 0.0133,-0.76854 0.97899,-1.65542 1.41156,-1.29642 0.36092,0.29954 0.2863,0.5158 -0.63454,1.83905 -2.55288,3.66848 -3.85696,4.52548 -5.11385,3.36064 z m -45.278564,-0.73657 c -0.23194,-0.32742 -1.07093,-1.47944 -1.86444,-2.56004 -0.7935,-1.0806 -1.44273,-2.09824 -1.44273,-2.26141 0,-0.4805 2.04234,-2.333335 2.35737,-2.138635 0.44918,0.27761 0.34142,0.88786 -0.26363,1.492905 -1.15124,1.15124 -0.0286,2.58894 1.24146,1.5899 0.87521,-0.68845 1.16272,-0.69946 1.16272,-0.0445 0,0.28047 -0.32713,0.76728 -0.72696,1.08179 l -0.72697,0.57183 0.73937,0.63597 c 0.70733,0.60842 0.76846,0.61691 1.411,0.1959 0.6785,-0.44457 1.16138,-0.20049 1.14039,0.57642 -0.009,0.32905 -1.74214,1.45521 -2.2397,1.45521 -0.20139,0 -0.55594,-0.2679 -0.78788,-0.59532 z m 41.672014,-2.28109 c 0,-0.29258 0.11994,-0.60608 0.26653,-0.69668 0.26026,-0.16085 1.10898,-1.74591 1.61424,-3.014755 0.41928,-1.05291 -0.36134,-0.23298 -1.62556,1.707425 -0.61112,0.93797 -1.21993,1.70541 -1.35293,1.70541 -0.48849,0 -0.54291,-0.8429 -0.12505,-1.93705 0.53235,-1.393935 0.53923,-1.658795 0.0321,-1.237955 -0.21828,0.18116 -0.39687,0.477335 -0.39687,0.658175 0,0.57026 -1.07497,1.72308 -1.60671,1.72308 -0.6004,0 -0.60427,-0.0196 -0.19279,-0.97974 0.86365,-2.015125 3.18528,-5.634845 3.6141,-5.634845 0.99224,0 1.42684,1.26833 0.82192,2.39864 -0.41081,0.76761 0.0537,0.59538 0.79065,-0.29318 0.71507,-0.86215 1.35914,-0.99459 1.86612,-0.38371 0.27316,0.32913 0.11066,0.84935 -0.92973,2.976565 -0.69341,1.41775 -1.34596,2.75632 -1.45011,2.9746 -0.30635,0.64204 -1.32595,0.6682 -1.32595,0.034 z m -37.483894,-0.50216 c -0.29794,-0.40299 -0.62896,-1.02807 -0.73559,-1.38906 -0.10664,-0.36099 -0.55612,-1.391925 -0.99885,-2.290975 -1.30547,-2.65098 -0.46363,-3.32423 1.58946,-1.27114 1.48351,1.4835 1.69226,1.33139 0.76567,-0.55789 -0.39504,-0.80547 -0.64931,-1.57605 -0.56504,-1.71239 0.26916,-0.43551 0.82117,-0.26669 1.13593,0.3474 0.16782,0.32743 0.4163,0.77391 0.55218,0.99219 2.53494,4.072225 2.51136,6.532445 -0.0379,3.951365 -1.91728,-1.941235 -2.10998,-1.866065 -1.00914,0.39362 0.46322,0.95085 0.76702,1.85049 0.67511,1.99921 -0.29077,0.47047 -0.8121,0.29477 -1.37185,-0.46233 z m 5.32987,-2.905305 c -1.80455,-4.99814 -1.84606,-5.21291 -1.13559,-5.87481 0.90151,-0.83988 2.87323,-0.54524 3.23293,0.48311 1.63969,4.6878 1.64976,5.05144 0.16759,6.053165 -1.33407,0.90163 -1.74378,0.78197 -2.26493,-0.661465 z m 1.99151,-1.67799 c 0,-1.2464 -1.37162,-3.47237 -1.84682,-2.99716 -0.28747,0.28746 0.0201,1.7066 0.72484,3.34502 0.49045,1.14014 1.12198,0.94434 1.12198,-0.34786 z m 19.351174,1.59876 c -1.17179,-0.52462 -1.29335,-1.3032 -0.52735,-3.37757 0.1244,-0.3369 0.22619,-0.93816 0.22619,-1.33615 0,-0.39798 0.10898,-0.83672 0.24217,-0.97496 0.1332,-0.13825 0.28203,-0.54901 0.33073,-0.91281 0.1046,-0.78136 1.71793,-1.07316 2.7827,-0.50331 1.18576,0.63459 0.38428,1.51532 -1.05112,1.15506 -0.57016,-0.1431 -0.66565,-0.0631 -0.76952,0.64458 -0.1422,0.96886 0.17808,1.3495 1.13548,1.3495 0.87715,0 1.2068,0.6825 0.50982,1.05551 -0.35313,0.189 -0.71257,0.17489 -1.19972,-0.0471 -0.81682,-0.37217 -1.08627,-0.11097 -1.06687,1.03426 0.0102,0.60065 0.15327,0.75469 0.80612,0.86774 0.55096,0.0954 0.79375,0.28926 0.79375,0.63372 0,0.791695 -0.96309,0.970825 -2.21238,0.4115 z m -16.815144,-0.71452 c -0.34705,-1.47238 -0.86232,-6.81983 -0.67747,-7.03073 0.73986,-0.84412 1.94458,-0.0349 2.68757,1.80521 0.4113,1.01865 0.8585,2.09021 0.99377,2.38125 1.022644,2.20019 0.891594,4.149385 -0.17344,2.57969 -0.56595,-0.83412 -1.66229,-0.80917 -1.66229,0.0378 0,0.34823 -0.18833,0.70542 -0.41852,0.79375 -0.58228,0.22344 -0.5592,0.2409 -0.74962,-0.567 z m 1.67781,-3.30911 c -0.1348,-0.47002 -0.24509,-0.88513 -0.24509,-0.92247 0,-0.0373 -0.12852,-0.0679 -0.28561,-0.0679 -0.2636,0 -0.11835,1.37761 0.20272,1.92254 0.3049,0.51751 0.54668,-0.16964 0.32798,-0.93218 z m 3.624284,3.29622 c -0.13216,-0.21384 -0.48065,-4.07909 -0.5296,-5.87408 -0.0302,-1.10554 0.0184,-1.19651 0.68,-1.27289 0.71323,-0.0823 1.53648,0.91994 1.53648,1.87063 0,0.1977 0.18676,0.59057 0.41501,0.87304 0.38549,0.47706 0.40441,0.40761 0.26595,-0.9765 -0.11203,-1.11986 -0.0537,-1.56925 0.23486,-1.80871 0.76699,-0.63655 0.93627,-0.009 0.93627,3.46876 0,3.97407 -0.19924,4.19383 -1.45521,1.60509 -1.01243,-2.08675 -1.19063,-2.05965 -1.19063,0.18102 0,1.68152 -0.44864,2.65284 -0.89313,1.93364 z m 6.11566,-0.25169 c -0.95747,-1.06634 -0.93416,-5.35412 0.0354,-6.51175 0.54036,-0.64517 2.57676,-0.5909 2.93486,0.0782 0.67959,1.26983 -0.17806,2.25747 -1.04902,1.20802 -0.44133,-0.53176 -1.05834,-0.50415 -1.05834,0.0474 0,0.24433 -0.13193,0.80988 -0.29319,1.25677 -0.60364,1.67292 0.29947,3.54866 1.21923,2.53233 0.65163,-0.72004 1.19063,-0.66884 1.19063,0.11309 0,1.32861 -2.11792,2.2356 -2.97956,1.27597 z"
       id="path826"
       inkscape:connector-curvature="0" />
  </g>
</svg>
